<svg width="1204" height="890" viewBox="0 0 1204 890" fill="none" xmlns="http://www.w3.org/2000/svg">
<path d="M20.8319 4.22396V71.616H4.41587V4.22396H20.8319ZM63.2564 17.472C69.5284 17.472 74.5204 19.52 78.2324 23.616C82.0084 27.648 83.8964 33.216 83.8964 40.32V71.616H67.5764V42.528C67.5764 38.944 66.6484 36.16 64.7924 34.176C62.9364 32.192 60.4404 31.2 57.3044 31.2C54.1684 31.2 51.6724 32.192 49.8164 34.176C47.9604 36.16 47.0324 38.944 47.0324 42.528V71.616H30.6164V18.048H47.0324V25.152C48.6964 22.784 50.9364 20.928 53.7524 19.584C56.5684 18.176 59.7364 17.472 63.2564 17.472Z" fill="white"/>
<path d="M109.216 58.464C111.392 56.736 112.384 55.936 112.192 56.064C118.464 50.88 123.392 46.624 126.976 43.296C130.624 39.968 133.696 36.48 136.192 32.832C138.688 29.184 139.936 25.632 139.936 22.176C139.936 19.552 139.328 17.504 138.112 16.032C136.896 14.56 135.072 13.824 132.64 13.824C130.208 13.824 128.288 14.752 126.88 16.608C125.536 18.4 124.864 20.96 124.864 24.288H109.024C109.152 18.848 110.304 14.304 112.48 10.656C114.72 7.00796 117.632 4.31996 121.216 2.59196C124.864 0.863962 128.896 -3.8147e-05 133.312 -3.8147e-05C140.928 -3.8147e-05 146.656 1.95196 150.496 5.85596C154.4 9.75996 156.352 14.848 156.352 21.12C156.352 27.968 154.016 34.336 149.344 40.224C144.672 46.048 138.72 51.744 131.488 57.312H157.408V70.656H109.216V58.464ZM162.523 35.616C162.523 24.608 164.635 15.936 168.859 9.59996C173.147 3.26396 180.027 0.0959606 189.499 0.0959606C198.971 0.0959606 205.819 3.26396 210.043 9.59996C214.331 15.936 216.475 24.608 216.475 35.616C216.475 46.752 214.331 55.488 210.043 61.824C205.819 68.16 198.971 71.328 189.499 71.328C180.027 71.328 173.147 68.16 168.859 61.824C164.635 55.488 162.523 46.752 162.523 35.616ZM200.347 35.616C200.347 29.152 199.643 24.192 198.235 20.736C196.827 17.216 193.915 15.456 189.499 15.456C185.083 15.456 182.171 17.216 180.763 20.736C179.355 24.192 178.651 29.152 178.651 35.616C178.651 39.968 178.907 43.584 179.419 46.464C179.931 49.28 180.955 51.584 182.491 53.376C184.091 55.104 186.427 55.968 189.499 55.968C192.571 55.968 194.875 55.104 196.411 53.376C198.011 51.584 199.067 49.28 199.579 46.464C200.091 43.584 200.347 39.968 200.347 35.616ZM223.42 59.136V45.888L253.756 2.49596H272.092V44.928H279.964V59.136H272.092V71.616H255.676V59.136H223.42ZM256.828 20.544L240.7 44.928H256.828V20.544ZM285.893 35.616C285.893 24.608 288.005 15.936 292.229 9.59996C296.517 3.26396 303.397 0.0959606 312.869 0.0959606C322.341 0.0959606 329.189 3.26396 333.413 9.59996C337.701 15.936 339.845 24.608 339.845 35.616C339.845 46.752 337.701 55.488 333.413 61.824C329.189 68.16 322.341 71.328 312.869 71.328C303.397 71.328 296.517 68.16 292.229 61.824C288.005 55.488 285.893 46.752 285.893 35.616ZM323.717 35.616C323.717 29.152 323.013 24.192 321.605 20.736C320.197 17.216 317.285 15.456 312.869 15.456C308.453 15.456 305.541 17.216 304.133 20.736C302.725 24.192 302.021 29.152 302.021 35.616C302.021 39.968 302.277 43.584 302.789 46.464C303.301 49.28 304.325 51.584 305.861 53.376C307.461 55.104 309.797 55.968 312.869 55.968C315.941 55.968 318.245 55.104 319.781 53.376C321.381 51.584 322.437 49.28 322.949 46.464C323.461 43.584 323.717 39.968 323.717 35.616Z" fill="#FFC800"/>
<path d="M64.2559 190.688L52.5439 235.616H39.2959L32.1279 206.048L24.7039 235.616H11.4559L0.0638672 190.688H11.7759L18.2399 223.392L26.2399 190.688H38.2719L45.9519 223.392L52.4799 190.688H64.2559ZM91.6964 199.52C95.7924 199.52 99.0777 200.885 101.552 203.616C104.027 206.304 105.264 210.016 105.264 214.752V235.616H94.3844V216.224C94.3844 213.835 93.7657 211.979 92.5284 210.656C91.291 209.333 89.627 208.672 87.5364 208.672C85.4457 208.672 83.7817 209.333 82.5444 210.656C81.307 211.979 80.6884 213.835 80.6884 216.224V235.616H69.7444V188.256H80.6884V204.704C81.7977 203.125 83.3124 201.867 85.2324 200.928C87.1524 199.989 89.307 199.52 91.6964 199.52ZM146.533 217.184C146.533 218.208 146.469 219.275 146.341 220.384H121.573C121.744 222.603 122.448 224.309 123.685 225.504C124.965 226.656 126.523 227.232 128.357 227.232C131.088 227.232 132.987 226.08 134.053 223.776H145.701C145.104 226.123 144.016 228.235 142.437 230.112C140.901 231.989 138.96 233.461 136.613 234.528C134.267 235.595 131.643 236.128 128.741 236.128C125.243 236.128 122.128 235.381 119.397 233.888C116.667 232.395 114.533 230.261 112.997 227.488C111.461 224.715 110.693 221.472 110.693 217.76C110.693 214.048 111.44 210.805 112.933 208.032C114.469 205.259 116.603 203.125 119.333 201.632C122.064 200.139 125.2 199.392 128.741 199.392C132.197 199.392 135.269 200.117 137.957 201.568C140.645 203.019 142.736 205.088 144.229 207.776C145.765 210.464 146.533 213.6 146.533 217.184ZM135.333 214.304C135.333 212.427 134.693 210.933 133.413 209.824C132.133 208.715 130.533 208.16 128.613 208.16C126.779 208.16 125.221 208.693 123.941 209.76C122.704 210.827 121.936 212.341 121.637 214.304H135.333ZM174.067 199.52C178.248 199.52 181.576 200.885 184.051 203.616C186.568 206.304 187.827 210.016 187.827 214.752V235.616H176.947V216.224C176.947 213.835 176.328 211.979 175.091 210.656C173.854 209.333 172.19 208.672 170.099 208.672C168.008 208.672 166.344 209.333 165.107 210.656C163.87 211.979 163.251 213.835 163.251 216.224V235.616H152.307V199.904H163.251V204.64C164.36 203.061 165.854 201.824 167.731 200.928C169.608 199.989 171.72 199.52 174.067 199.52ZM230.946 199.52C235.042 199.52 238.328 200.885 240.802 203.616C243.277 206.304 244.514 210.016 244.514 214.752V235.616H233.634V216.224C233.634 213.835 233.016 211.979 231.778 210.656C230.541 209.333 228.877 208.672 226.786 208.672C224.696 208.672 223.032 209.333 221.794 210.656C220.557 211.979 219.938 213.835 219.938 216.224V235.616H208.994V188.256H219.938V204.704C221.048 203.125 222.562 201.867 224.482 200.928C226.402 199.989 228.557 199.52 230.946 199.52ZM268.375 236.128C264.877 236.128 261.719 235.381 258.903 233.888C256.13 232.395 253.933 230.261 252.311 227.488C250.733 224.715 249.943 221.472 249.943 217.76C249.943 214.091 250.754 210.869 252.375 208.096C253.997 205.28 256.215 203.125 259.031 201.632C261.847 200.139 265.005 199.392 268.503 199.392C272.002 199.392 275.159 200.139 277.975 201.632C280.791 203.125 283.01 205.28 284.631 208.096C286.253 210.869 287.063 214.091 287.063 217.76C287.063 221.429 286.231 224.672 284.567 227.488C282.946 230.261 280.706 232.395 277.847 233.888C275.031 235.381 271.874 236.128 268.375 236.128ZM268.375 226.656C270.466 226.656 272.237 225.888 273.687 224.352C275.181 222.816 275.927 220.619 275.927 217.76C275.927 214.901 275.202 212.704 273.751 211.168C272.343 209.632 270.594 208.864 268.503 208.864C266.37 208.864 264.599 209.632 263.191 211.168C261.783 212.661 261.079 214.859 261.079 217.76C261.079 220.619 261.762 222.816 263.127 224.352C264.535 225.888 266.285 226.656 268.375 226.656ZM338.437 199.52C342.875 199.52 346.395 200.864 348.997 203.552C351.643 206.24 352.965 209.973 352.965 214.752V235.616H342.085V216.224C342.085 213.92 341.467 212.149 340.229 210.912C339.035 209.632 337.371 208.992 335.237 208.992C333.104 208.992 331.419 209.632 330.181 210.912C328.987 212.149 328.389 213.92 328.389 216.224V235.616H317.509V216.224C317.509 213.92 316.891 212.149 315.653 210.912C314.459 209.632 312.795 208.992 310.661 208.992C308.528 208.992 306.843 209.632 305.605 210.912C304.411 212.149 303.813 213.92 303.813 216.224V235.616H292.869V199.904H303.813V204.384C304.923 202.891 306.373 201.717 308.165 200.864C309.957 199.968 311.984 199.52 314.245 199.52C316.933 199.52 319.323 200.096 321.413 201.248C323.547 202.4 325.211 204.043 326.405 206.176C327.643 204.213 329.328 202.613 331.461 201.376C333.595 200.139 335.92 199.52 338.437 199.52ZM394.283 217.184C394.283 218.208 394.219 219.275 394.091 220.384H369.323C369.494 222.603 370.198 224.309 371.435 225.504C372.715 226.656 374.273 227.232 376.107 227.232C378.838 227.232 380.737 226.08 381.803 223.776H393.451C392.854 226.123 391.766 228.235 390.187 230.112C388.651 231.989 386.71 233.461 384.363 234.528C382.017 235.595 379.393 236.128 376.491 236.128C372.993 236.128 369.878 235.381 367.147 233.888C364.417 232.395 362.283 230.261 360.747 227.488C359.211 224.715 358.443 221.472 358.443 217.76C358.443 214.048 359.19 210.805 360.683 208.032C362.219 205.259 364.353 203.125 367.083 201.632C369.814 200.139 372.95 199.392 376.491 199.392C379.947 199.392 383.019 200.117 385.707 201.568C388.395 203.019 390.486 205.088 391.979 207.776C393.515 210.464 394.283 213.6 394.283 217.184ZM383.083 214.304C383.083 212.427 382.443 210.933 381.163 209.824C379.883 208.715 378.283 208.16 376.363 208.16C374.529 208.16 372.971 208.693 371.691 209.76C370.454 210.827 369.686 212.341 369.387 214.304H383.083ZM416.313 236.128C412.814 236.128 409.657 235.381 406.841 233.888C404.068 232.395 401.87 230.261 400.249 227.488C398.67 224.715 397.881 221.472 397.881 217.76C397.881 214.091 398.692 210.869 400.313 208.096C401.934 205.28 404.153 203.125 406.969 201.632C409.785 200.139 412.942 199.392 416.441 199.392C419.94 199.392 423.097 200.139 425.913 201.632C428.729 203.125 430.948 205.28 432.569 208.096C434.19 210.869 435.001 214.091 435.001 217.76C435.001 221.429 434.169 224.672 432.505 227.488C430.884 230.261 428.644 232.395 425.785 233.888C422.969 235.381 419.812 236.128 416.313 236.128ZM416.313 226.656C418.404 226.656 420.174 225.888 421.625 224.352C423.118 222.816 423.865 220.619 423.865 217.76C423.865 214.901 423.14 212.704 421.689 211.168C420.281 209.632 418.532 208.864 416.441 208.864C414.308 208.864 412.537 209.632 411.129 211.168C409.721 212.661 409.017 214.859 409.017 217.76C409.017 220.619 409.7 222.816 411.065 224.352C412.473 225.888 414.222 226.656 416.313 226.656ZM492.071 199.904L482.407 235.616H470.311L464.679 212.448L458.855 235.616H446.823L437.095 199.904H448.039L453.095 225.44L459.111 199.904H470.695L476.775 225.312L481.767 199.904H492.071ZM518.004 199.52C522.186 199.52 525.514 200.885 527.988 203.616C530.506 206.304 531.764 210.016 531.764 214.752V235.616H520.884V216.224C520.884 213.835 520.266 211.979 519.028 210.656C517.791 209.333 516.127 208.672 514.036 208.672C511.946 208.672 510.282 209.333 509.044 210.656C507.807 211.979 507.188 213.835 507.188 216.224V235.616H496.244V199.904H507.188V204.64C508.298 203.061 509.791 201.824 511.668 200.928C513.546 199.989 515.658 199.52 518.004 199.52ZM573.033 217.184C573.033 218.208 572.969 219.275 572.841 220.384H548.073C548.244 222.603 548.948 224.309 550.185 225.504C551.465 226.656 553.023 227.232 554.857 227.232C557.588 227.232 559.487 226.08 560.553 223.776H572.201C571.604 226.123 570.516 228.235 568.937 230.112C567.401 231.989 565.46 233.461 563.113 234.528C560.767 235.595 558.143 236.128 555.241 236.128C551.743 236.128 548.628 235.381 545.897 233.888C543.167 232.395 541.033 230.261 539.497 227.488C537.961 224.715 537.193 221.472 537.193 217.76C537.193 214.048 537.94 210.805 539.433 208.032C540.969 205.259 543.103 203.125 545.833 201.632C548.564 200.139 551.7 199.392 555.241 199.392C558.697 199.392 561.769 200.117 564.457 201.568C567.145 203.019 569.236 205.088 570.729 207.776C572.265 210.464 573.033 213.6 573.033 217.184ZM561.833 214.304C561.833 212.427 561.193 210.933 559.913 209.824C558.633 208.715 557.033 208.16 555.113 208.16C553.279 208.16 551.721 208.693 550.441 209.76C549.204 210.827 548.436 212.341 548.137 214.304H561.833ZM589.751 205.856C591.031 203.893 592.631 202.357 594.551 201.248C596.471 200.096 598.604 199.52 600.951 199.52V211.104H597.943C595.212 211.104 593.164 211.701 591.799 212.896C590.434 214.048 589.751 216.096 589.751 219.04V235.616H578.807V199.904H589.751V205.856ZM620.71 236.128C617.595 236.128 614.822 235.595 612.39 234.528C609.958 233.461 608.038 232.011 606.63 230.176C605.222 228.299 604.433 226.208 604.262 223.904H615.078C615.206 225.141 615.782 226.144 616.806 226.912C617.83 227.68 619.089 228.064 620.582 228.064C621.947 228.064 622.993 227.808 623.718 227.296C624.486 226.741 624.87 226.037 624.87 225.184C624.87 224.16 624.337 223.413 623.27 222.944C622.203 222.432 620.475 221.877 618.086 221.28C615.526 220.683 613.393 220.064 611.686 219.424C609.979 218.741 608.507 217.696 607.27 216.288C606.033 214.837 605.414 212.896 605.414 210.464C605.414 208.416 605.969 206.56 607.078 204.896C608.23 203.189 609.894 201.845 612.07 200.864C614.289 199.883 616.913 199.392 619.942 199.392C624.422 199.392 627.942 200.501 630.502 202.72C633.105 204.939 634.598 207.883 634.982 211.552H624.87C624.699 210.315 624.145 209.333 623.206 208.608C622.31 207.883 621.115 207.52 619.622 207.52C618.342 207.52 617.361 207.776 616.678 208.288C615.995 208.757 615.654 209.419 615.654 210.272C615.654 211.296 616.187 212.064 617.254 212.576C618.363 213.088 620.07 213.6 622.374 214.112C625.019 214.795 627.174 215.477 628.838 216.16C630.502 216.8 631.953 217.867 633.19 219.36C634.47 220.811 635.131 222.773 635.174 225.248C635.174 227.339 634.577 229.216 633.382 230.88C632.23 232.501 630.545 233.781 628.326 234.72C626.15 235.659 623.611 236.128 620.71 236.128ZM689.096 217.184C689.096 218.208 689.032 219.275 688.904 220.384H664.136C664.307 222.603 665.011 224.309 666.248 225.504C667.528 226.656 669.085 227.232 670.92 227.232C673.651 227.232 675.549 226.08 676.616 223.776H688.264C687.667 226.123 686.579 228.235 685 230.112C683.464 231.989 681.523 233.461 679.176 234.528C676.829 235.595 674.205 236.128 671.304 236.128C667.805 236.128 664.691 235.381 661.96 233.888C659.229 232.395 657.096 230.261 655.56 227.488C654.024 224.715 653.256 221.472 653.256 217.76C653.256 214.048 654.003 210.805 655.496 208.032C657.032 205.259 659.165 203.125 661.896 201.632C664.627 200.139 667.763 199.392 671.304 199.392C674.76 199.392 677.832 200.117 680.52 201.568C683.208 203.019 685.299 205.088 686.792 207.776C688.328 210.464 689.096 213.6 689.096 217.184ZM677.896 214.304C677.896 212.427 677.256 210.933 675.976 209.824C674.696 208.715 673.096 208.16 671.176 208.16C669.341 208.16 667.784 208.693 666.504 209.76C665.267 210.827 664.499 212.341 664.2 214.304H677.896ZM716.629 199.52C720.811 199.52 724.139 200.885 726.613 203.616C729.131 206.304 730.389 210.016 730.389 214.752V235.616H719.509V216.224C719.509 213.835 718.891 211.979 717.653 210.656C716.416 209.333 714.752 208.672 712.661 208.672C710.571 208.672 708.907 209.333 707.669 210.656C706.432 211.979 705.813 213.835 705.813 216.224V235.616H694.869V199.904H705.813V204.64C706.923 203.061 708.416 201.824 710.293 200.928C712.171 199.989 714.283 199.52 716.629 199.52ZM743.434 196.192C741.514 196.192 739.936 195.637 738.698 194.528C737.504 193.376 736.906 191.968 736.906 190.304C736.906 188.597 737.504 187.189 738.698 186.08C739.936 184.928 741.514 184.352 743.434 184.352C745.312 184.352 746.848 184.928 748.042 186.08C749.28 187.189 749.898 188.597 749.898 190.304C749.898 191.968 749.28 193.376 748.042 194.528C746.848 195.637 745.312 196.192 743.434 196.192ZM748.938 240.224C748.938 244.619 747.829 247.776 745.61 249.696C743.392 251.659 740.298 252.64 736.33 252.64H732.042V243.36H734.666C735.861 243.36 736.714 243.125 737.226 242.656C737.738 242.187 737.994 241.419 737.994 240.352V199.904H748.938V240.224ZM773.063 236.128C769.564 236.128 766.407 235.381 763.591 233.888C760.818 232.395 758.62 230.261 756.999 227.488C755.42 224.715 754.631 221.472 754.631 217.76C754.631 214.091 755.442 210.869 757.063 208.096C758.684 205.28 760.903 203.125 763.719 201.632C766.535 200.139 769.692 199.392 773.191 199.392C776.69 199.392 779.847 200.139 782.663 201.632C785.479 203.125 787.698 205.28 789.319 208.096C790.94 210.869 791.751 214.091 791.751 217.76C791.751 221.429 790.919 224.672 789.255 227.488C787.634 230.261 785.394 232.395 782.535 233.888C779.719 235.381 776.562 236.128 773.063 236.128ZM773.063 226.656C775.154 226.656 776.924 225.888 778.375 224.352C779.868 222.816 780.615 220.619 780.615 217.76C780.615 214.901 779.89 212.704 778.439 211.168C777.031 209.632 775.282 208.864 773.191 208.864C771.058 208.864 769.287 209.632 767.879 211.168C766.471 212.661 765.767 214.859 765.767 217.76C765.767 220.619 766.45 222.816 767.815 224.352C769.223 225.888 770.972 226.656 773.063 226.656ZM834.037 199.904L811.637 252.576H799.861L808.053 234.4L793.525 199.904H805.749L814.005 222.24L822.197 199.904H834.037ZM843.498 196.192C841.578 196.192 840 195.637 838.762 194.528C837.568 193.376 836.97 191.968 836.97 190.304C836.97 188.597 837.568 187.189 838.762 186.08C840 184.928 841.578 184.352 843.498 184.352C845.376 184.352 846.912 184.928 848.106 186.08C849.344 187.189 849.962 188.597 849.962 190.304C849.962 191.968 849.344 193.376 848.106 194.528C846.912 195.637 845.376 196.192 843.498 196.192ZM848.938 199.904V235.616H837.994V199.904H848.938ZM878.629 199.52C882.811 199.52 886.139 200.885 888.613 203.616C891.131 206.304 892.389 210.016 892.389 214.752V235.616H881.509V216.224C881.509 213.835 880.891 211.979 879.653 210.656C878.416 209.333 876.752 208.672 874.661 208.672C872.571 208.672 870.907 209.333 869.669 210.656C868.432 211.979 867.813 213.835 867.813 216.224V235.616H856.869V199.904H867.813V204.64C868.923 203.061 870.416 201.824 872.293 200.928C874.171 199.989 876.283 199.52 878.629 199.52ZM913.562 199.392C916.08 199.392 918.277 199.904 920.154 200.928C922.074 201.952 923.546 203.296 924.57 204.96V199.904H935.514V235.552C935.514 238.837 934.853 241.803 933.53 244.448C932.25 247.136 930.266 249.269 927.578 250.848C924.933 252.427 921.626 253.216 917.658 253.216C912.368 253.216 908.08 251.957 904.794 249.44C901.509 246.965 899.632 243.595 899.162 239.328H909.978C910.32 240.693 911.13 241.76 912.41 242.528C913.69 243.339 915.269 243.744 917.146 243.744C919.408 243.744 921.2 243.083 922.522 241.76C923.888 240.48 924.57 238.411 924.57 235.552V230.496C923.504 232.16 922.032 233.525 920.154 234.592C918.277 235.616 916.08 236.128 913.562 236.128C910.618 236.128 907.952 235.381 905.562 233.888C903.173 232.352 901.274 230.197 899.866 227.424C898.501 224.608 897.818 221.365 897.818 217.696C897.818 214.027 898.501 210.805 899.866 208.032C901.274 205.259 903.173 203.125 905.562 201.632C907.952 200.139 910.618 199.392 913.562 199.392ZM924.57 217.76C924.57 215.029 923.802 212.875 922.266 211.296C920.773 209.717 918.938 208.928 916.762 208.928C914.586 208.928 912.73 209.717 911.194 211.296C909.701 212.832 908.954 214.965 908.954 217.696C908.954 220.427 909.701 222.603 911.194 224.224C912.73 225.803 914.586 226.592 916.762 226.592C918.938 226.592 920.773 225.803 922.266 224.224C923.802 222.645 924.57 220.491 924.57 217.76ZM976.898 226.336V235.616H971.33C967.362 235.616 964.269 234.656 962.05 232.736C959.832 230.773 958.722 227.595 958.722 223.2V208.992H954.37V199.904H958.722V191.2H969.666V199.904H976.834V208.992H969.666V223.328C969.666 224.395 969.922 225.163 970.434 225.632C970.946 226.101 971.8 226.336 972.994 226.336H976.898ZM1004.95 199.52C1009.04 199.52 1012.33 200.885 1014.8 203.616C1017.28 206.304 1018.51 210.016 1018.51 214.752V235.616H1007.63V216.224C1007.63 213.835 1007.02 211.979 1005.78 210.656C1004.54 209.333 1002.88 208.672 1000.79 208.672C998.696 208.672 997.032 209.333 995.794 210.656C994.557 211.979 993.938 213.835 993.938 216.224V235.616H982.994V188.256H993.938V204.704C995.048 203.125 996.562 201.867 998.482 200.928C1000.4 199.989 1002.56 199.52 1004.95 199.52ZM1059.78 217.184C1059.78 218.208 1059.72 219.275 1059.59 220.384H1034.82C1034.99 222.603 1035.7 224.309 1036.94 225.504C1038.22 226.656 1039.77 227.232 1041.61 227.232C1044.34 227.232 1046.24 226.08 1047.3 223.776H1058.95C1058.35 226.123 1057.27 228.235 1055.69 230.112C1054.15 231.989 1052.21 233.461 1049.86 234.528C1047.52 235.595 1044.89 236.128 1041.99 236.128C1038.49 236.128 1035.38 235.381 1032.65 233.888C1029.92 232.395 1027.78 230.261 1026.25 227.488C1024.71 224.715 1023.94 221.472 1023.94 217.76C1023.94 214.048 1024.69 210.805 1026.18 208.032C1027.72 205.259 1029.85 203.125 1032.58 201.632C1035.31 200.139 1038.45 199.392 1041.99 199.392C1045.45 199.392 1048.52 200.117 1051.21 201.568C1053.9 203.019 1055.99 205.088 1057.48 207.776C1059.02 210.464 1059.78 213.6 1059.78 217.184ZM1048.58 214.304C1048.58 212.427 1047.94 210.933 1046.66 209.824C1045.38 208.715 1043.78 208.16 1041.86 208.16C1040.03 208.16 1038.47 208.693 1037.19 209.76C1035.95 210.827 1035.19 212.341 1034.89 214.304H1048.58ZM1071.06 196.192C1069.14 196.192 1067.56 195.637 1066.32 194.528C1065.13 193.376 1064.53 191.968 1064.53 190.304C1064.53 188.597 1065.13 187.189 1066.32 186.08C1067.56 184.928 1069.14 184.352 1071.06 184.352C1072.94 184.352 1074.47 184.928 1075.67 186.08C1076.91 187.189 1077.52 188.597 1077.52 190.304C1077.52 191.968 1076.91 193.376 1075.67 194.528C1074.47 195.637 1072.94 196.192 1071.06 196.192ZM1076.5 199.904V235.616H1065.56V199.904H1076.5ZM1095.38 205.856C1096.66 203.893 1098.26 202.357 1100.18 201.248C1102.1 200.096 1104.23 199.52 1106.58 199.52V211.104H1103.57C1100.84 211.104 1098.79 211.701 1097.42 212.896C1096.06 214.048 1095.38 216.096 1095.38 219.04V235.616H1084.43V199.904H1095.38V205.856ZM684.602 314.904L674.938 350.616H662.842L657.21 327.448L651.386 350.616H639.354L629.626 314.904H640.57L645.626 340.44L651.642 314.904H663.226L669.306 340.312L674.298 314.904H684.602ZM722.44 332.184C722.44 333.208 722.376 334.275 722.248 335.384H697.48C697.65 337.603 698.354 339.309 699.592 340.504C700.872 341.656 702.429 342.232 704.264 342.232C706.994 342.232 708.893 341.08 709.96 338.776H721.608C721.01 341.123 719.922 343.235 718.344 345.112C716.808 346.989 714.866 348.461 712.52 349.528C710.173 350.595 707.549 351.128 704.648 351.128C701.149 351.128 698.034 350.381 695.304 348.888C692.573 347.395 690.44 345.261 688.904 342.488C687.368 339.715 686.6 336.472 686.6 332.76C686.6 329.048 687.346 325.805 688.84 323.032C690.376 320.259 692.509 318.125 695.24 316.632C697.97 315.139 701.106 314.392 704.648 314.392C708.104 314.392 711.176 315.117 713.864 316.568C716.552 318.019 718.642 320.088 720.136 322.776C721.672 325.464 722.44 328.6 722.44 332.184ZM711.24 329.304C711.24 327.427 710.6 325.933 709.32 324.824C708.04 323.715 706.44 323.16 704.52 323.16C702.685 323.16 701.128 323.693 699.848 324.76C698.61 325.827 697.842 327.341 697.544 329.304H711.24ZM761.877 332.184C761.877 333.208 761.813 334.275 761.685 335.384H736.917C737.088 337.603 737.792 339.309 739.029 340.504C740.309 341.656 741.866 342.232 743.701 342.232C746.432 342.232 748.33 341.08 749.397 338.776H761.045C760.448 341.123 759.36 343.235 757.781 345.112C756.245 346.989 754.304 348.461 751.957 349.528C749.61 350.595 746.986 351.128 744.085 351.128C740.586 351.128 737.472 350.381 734.741 348.888C732.01 347.395 729.877 345.261 728.341 342.488C726.805 339.715 726.037 336.472 726.037 332.76C726.037 329.048 726.784 325.805 728.277 323.032C729.813 320.259 731.946 318.125 734.677 316.632C737.408 315.139 740.544 314.392 744.085 314.392C747.541 314.392 750.613 315.117 753.301 316.568C755.989 318.019 758.08 320.088 759.573 322.776C761.109 325.464 761.877 328.6 761.877 332.184ZM750.677 329.304C750.677 327.427 750.037 325.933 748.757 324.824C747.477 323.715 745.877 323.16 743.957 323.16C742.122 323.16 740.565 323.693 739.285 324.76C738.048 325.827 737.28 327.341 736.981 329.304H750.677ZM789.475 350.616L778.595 335.64V350.616H767.651V303.256H778.595V329.432L789.411 314.904H802.915L788.067 332.824L803.043 350.616H789.475Z" fill="white" fill-opacity="0.8"/>
<path d="M3.16787 338.136V324.888L33.5039 281.496H51.8399V323.928H59.7119V338.136H51.8399V350.616H35.4239V338.136H3.16787ZM36.5759 299.544L20.4479 323.928H36.5759V299.544ZM110.665 310.104V323.736H68.4246V310.104H110.665ZM121.808 323.736C121.808 318.232 122.832 313.4 124.88 309.24C126.992 305.08 129.84 301.88 133.424 299.64C137.008 297.4 141.008 296.28 145.424 296.28C148.944 296.28 152.144 297.016 155.024 298.488C157.968 299.96 160.272 301.944 161.936 304.44V279.576H178.352V350.616H161.936V342.936C160.4 345.496 158.192 347.544 155.312 349.08C152.496 350.616 149.2 351.384 145.424 351.384C141.008 351.384 137.008 350.264 133.424 348.024C129.84 345.72 126.992 342.488 124.88 338.328C122.832 334.104 121.808 329.24 121.808 323.736ZM161.936 323.832C161.936 319.736 160.784 316.504 158.48 314.136C156.24 311.768 153.488 310.584 150.224 310.584C146.96 310.584 144.176 311.768 141.872 314.136C139.632 316.44 138.512 319.64 138.512 323.736C138.512 327.832 139.632 331.096 141.872 333.528C144.176 335.896 146.96 337.08 150.224 337.08C153.488 337.08 156.24 335.896 158.48 333.528C160.784 331.16 161.936 327.928 161.936 323.832ZM186.964 323.736C186.964 318.232 187.988 313.4 190.036 309.24C192.148 305.08 194.996 301.88 198.58 299.64C202.164 297.4 206.164 296.28 210.58 296.28C214.356 296.28 217.652 297.048 220.468 298.584C223.348 300.12 225.556 302.136 227.092 304.632V297.048H243.508V350.616H227.092V343.032C225.492 345.528 223.252 347.544 220.372 349.08C217.556 350.616 214.26 351.384 210.484 351.384C206.132 351.384 202.164 350.264 198.58 348.024C194.996 345.72 192.148 342.488 190.036 338.328C187.988 334.104 186.964 329.24 186.964 323.736ZM227.092 323.832C227.092 319.736 225.94 316.504 223.636 314.136C221.396 311.768 218.644 310.584 215.38 310.584C212.116 310.584 209.332 311.768 207.028 314.136C204.788 316.44 203.668 319.64 203.668 323.736C203.668 327.832 204.788 331.096 207.028 333.528C209.332 335.896 212.116 337.08 215.38 337.08C218.644 337.08 221.396 335.896 223.636 333.528C225.94 331.16 227.092 327.928 227.092 323.832ZM310.105 297.048L276.505 376.056H258.841L271.129 348.792L249.337 297.048H267.673L280.057 330.552L292.345 297.048H310.105ZM413.281 297.048L398.785 350.616H380.641L372.193 315.864L363.457 350.616H345.409L330.817 297.048H347.233L354.817 335.352L363.841 297.048H381.217L390.337 335.16L397.825 297.048H413.281ZM443.925 351.384C438.677 351.384 433.941 350.264 429.717 348.024C425.557 345.784 422.261 342.584 419.829 338.424C417.461 334.264 416.277 329.4 416.277 323.832C416.277 318.328 417.493 313.496 419.925 309.336C422.357 305.112 425.685 301.88 429.909 299.64C434.133 297.4 438.869 296.28 444.117 296.28C449.365 296.28 454.101 297.4 458.325 299.64C462.549 301.88 465.877 305.112 468.309 309.336C470.741 313.496 471.957 318.328 471.957 323.832C471.957 329.336 470.709 334.2 468.213 338.424C465.781 342.584 462.421 345.784 458.133 348.024C453.909 350.264 449.173 351.384 443.925 351.384ZM443.925 337.176C447.061 337.176 449.717 336.024 451.893 333.72C454.133 331.416 455.253 328.12 455.253 323.832C455.253 319.544 454.165 316.248 451.989 313.944C449.877 311.64 447.253 310.488 444.117 310.488C440.917 310.488 438.261 311.64 436.149 313.944C434.037 316.184 432.981 319.48 432.981 323.832C432.981 328.12 434.005 331.416 436.053 333.72C438.165 336.024 440.789 337.176 443.925 337.176ZM497.082 305.976C499.002 303.032 501.402 300.728 504.282 299.064C507.162 297.336 510.362 296.472 513.882 296.472V313.848H509.37C505.274 313.848 502.202 314.744 500.154 316.536C498.106 318.264 497.082 321.336 497.082 325.752V350.616H480.666V297.048H497.082V305.976ZM554.464 350.616L538.144 328.152V350.616H521.728V279.576H538.144V318.84L554.368 297.048H574.624L552.352 323.928L574.816 350.616H554.464Z" fill="#FFC800"/>
<path d="M18.6879 554.064C15.4025 554.064 12.4585 553.531 9.85587 552.464C7.2532 551.397 5.16253 549.819 3.58387 547.728C2.04787 545.637 1.2372 543.12 1.15187 540.176H12.7999C12.9705 541.84 13.5465 543.12 14.5279 544.016C15.5092 544.869 16.7892 545.296 18.3679 545.296C19.9892 545.296 21.2692 544.933 22.2079 544.208C23.1465 543.44 23.6159 542.395 23.6159 541.072C23.6159 539.963 23.2319 539.045 22.4639 538.32C21.7385 537.595 20.8212 536.997 19.7119 536.528C18.6452 536.059 17.1092 535.525 15.1039 534.928C12.2025 534.032 9.83453 533.136 7.99987 532.24C6.1652 531.344 4.58653 530.021 3.26387 528.272C1.9412 526.523 1.27987 524.24 1.27987 521.424C1.27987 517.243 2.79453 513.979 5.82387 511.632C8.8532 509.243 12.7999 508.048 17.6639 508.048C22.6132 508.048 26.6025 509.243 29.6319 511.632C32.6612 513.979 34.2825 517.264 34.4959 521.488H22.6559C22.5705 520.037 22.0372 518.907 21.0559 518.096C20.0745 517.243 18.8159 516.816 17.2799 516.816C15.9572 516.816 14.8905 517.179 14.0799 517.904C13.2692 518.587 12.8639 519.589 12.8639 520.912C12.8639 522.363 13.5465 523.493 14.9119 524.304C16.2772 525.115 18.4105 525.989 21.3119 526.928C24.2132 527.909 26.5599 528.848 28.3519 529.744C30.1865 530.64 31.7652 531.941 33.0879 533.648C34.4105 535.355 35.0719 537.552 35.0719 540.24C35.0719 542.8 34.4105 545.125 33.0879 547.216C31.8079 549.307 29.9305 550.971 27.4559 552.208C24.9812 553.445 22.0585 554.064 18.6879 554.064ZM45.9029 514.192C43.9829 514.192 42.4042 513.637 41.1669 512.528C39.9722 511.376 39.3749 509.968 39.3749 508.304C39.3749 506.597 39.9722 505.189 41.1669 504.08C42.4042 502.928 43.9829 502.352 45.9029 502.352C47.7802 502.352 49.3162 502.928 50.5109 504.08C51.7482 505.189 52.3669 506.597 52.3669 508.304C52.3669 509.968 51.7482 511.376 50.5109 512.528C49.3162 513.637 47.7802 514.192 45.9029 514.192ZM51.3429 517.904V553.616H40.3989V517.904H51.3429ZM55.6899 535.696C55.6899 532.027 56.3725 528.805 57.7379 526.032C59.1459 523.259 61.0445 521.125 63.4339 519.632C65.8232 518.139 68.4899 517.392 71.4339 517.392C73.7805 517.392 75.9139 517.883 77.8339 518.864C79.7965 519.845 81.3325 521.168 82.4419 522.832V506.256H93.3859V553.616H82.4419V548.496C81.4179 550.203 79.9459 551.568 78.0259 552.592C76.1485 553.616 73.9512 554.128 71.4339 554.128C68.4899 554.128 65.8232 553.381 63.4339 551.888C61.0445 550.352 59.1459 548.197 57.7379 545.424C56.3725 542.608 55.6899 539.365 55.6899 535.696ZM82.4419 535.76C82.4419 533.029 81.6739 530.875 80.1379 529.296C78.6445 527.717 76.8099 526.928 74.6339 526.928C72.4579 526.928 70.6019 527.717 69.0659 529.296C67.5725 530.832 66.8259 532.965 66.8259 535.696C66.8259 538.427 67.5725 540.603 69.0659 542.224C70.6019 543.803 72.4579 544.592 74.6339 544.592C76.8099 544.592 78.6445 543.803 80.1379 542.224C81.6739 540.645 82.4419 538.491 82.4419 535.76ZM133.559 535.184C133.559 536.208 133.495 537.275 133.367 538.384H108.599C108.77 540.603 109.474 542.309 110.711 543.504C111.991 544.656 113.549 545.232 115.383 545.232C118.114 545.232 120.013 544.08 121.079 541.776H132.727C132.13 544.123 131.042 546.235 129.463 548.112C127.927 549.989 125.986 551.461 123.639 552.528C121.293 553.595 118.669 554.128 115.767 554.128C112.269 554.128 109.154 553.381 106.423 551.888C103.693 550.395 101.559 548.261 100.023 545.488C98.4874 542.715 97.7194 539.472 97.7194 535.76C97.7194 532.048 98.466 528.805 99.9594 526.032C101.495 523.259 103.629 521.125 106.359 519.632C109.09 518.139 112.226 517.392 115.767 517.392C119.223 517.392 122.295 518.117 124.983 519.568C127.671 521.019 129.762 523.088 131.255 525.776C132.791 528.464 133.559 531.6 133.559 535.184ZM122.359 532.304C122.359 530.427 121.719 528.933 120.439 527.824C119.159 526.715 117.559 526.16 115.639 526.16C113.805 526.16 112.247 526.693 110.967 527.76C109.73 528.827 108.962 530.341 108.663 532.304H122.359ZM189.189 517.904L179.525 553.616H167.429L161.797 530.448L155.973 553.616H143.941L134.213 517.904H145.157L150.213 543.44L156.229 517.904H167.813L173.893 543.312L178.885 517.904H189.189ZM189.778 535.696C189.778 532.027 190.461 528.805 191.826 526.032C193.234 523.259 195.133 521.125 197.522 519.632C199.912 518.139 202.578 517.392 205.522 517.392C208.04 517.392 210.237 517.904 212.114 518.928C214.034 519.952 215.506 521.296 216.53 522.96V517.904H227.474V553.616H216.53V548.56C215.464 550.224 213.97 551.568 212.05 552.592C210.173 553.616 207.976 554.128 205.458 554.128C202.557 554.128 199.912 553.381 197.522 551.888C195.133 550.352 193.234 548.197 191.826 545.424C190.461 542.608 189.778 539.365 189.778 535.696ZM216.53 535.76C216.53 533.029 215.762 530.875 214.226 529.296C212.733 527.717 210.898 526.928 208.722 526.928C206.546 526.928 204.69 527.717 203.154 529.296C201.661 530.832 200.914 532.965 200.914 535.696C200.914 538.427 201.661 540.603 203.154 542.224C204.69 543.803 206.546 544.592 208.722 544.592C210.898 544.592 212.733 543.803 214.226 542.224C215.762 540.645 216.53 538.491 216.53 535.76ZM244.928 506.256V553.616H233.984V506.256H244.928ZM273.275 553.616L262.395 538.64V553.616H251.451V506.256H262.395V532.432L273.211 517.904H286.715L271.867 535.824L286.843 553.616H273.275ZM304.133 554.128C301.019 554.128 298.245 553.595 295.813 552.528C293.381 551.461 291.461 550.011 290.053 548.176C288.645 546.299 287.856 544.208 287.685 541.904H298.501C298.629 543.141 299.205 544.144 300.229 544.912C301.253 545.68 302.512 546.064 304.005 546.064C305.371 546.064 306.416 545.808 307.141 545.296C307.909 544.741 308.293 544.037 308.293 543.184C308.293 542.16 307.76 541.413 306.693 540.944C305.627 540.432 303.899 539.877 301.509 539.28C298.949 538.683 296.816 538.064 295.109 537.424C293.403 536.741 291.931 535.696 290.693 534.288C289.456 532.837 288.837 530.896 288.837 528.464C288.837 526.416 289.392 524.56 290.501 522.896C291.653 521.189 293.317 519.845 295.493 518.864C297.712 517.883 300.336 517.392 303.365 517.392C307.845 517.392 311.365 518.501 313.925 520.72C316.528 522.939 318.021 525.883 318.405 529.552H308.293C308.123 528.315 307.568 527.333 306.629 526.608C305.733 525.883 304.539 525.52 303.045 525.52C301.765 525.52 300.784 525.776 300.101 526.288C299.419 526.757 299.077 527.419 299.077 528.272C299.077 529.296 299.611 530.064 300.677 530.576C301.787 531.088 303.493 531.6 305.797 532.112C308.443 532.795 310.597 533.477 312.261 534.16C313.925 534.8 315.376 535.867 316.613 537.36C317.893 538.811 318.555 540.773 318.597 543.248C318.597 545.339 318 547.216 316.805 548.88C315.653 550.501 313.968 551.781 311.749 552.72C309.573 553.659 307.035 554.128 304.133 554.128ZM353.959 526.992H348.071V553.616H337.127V526.992H333.159V517.904H337.127V516.88C337.127 512.485 338.386 509.157 340.903 506.896C343.421 504.592 347.111 503.44 351.975 503.44C352.786 503.44 353.383 503.461 353.767 503.504V512.784C351.677 512.656 350.205 512.955 349.351 513.68C348.498 514.405 348.071 515.707 348.071 517.584V517.904H353.959V526.992ZM363.198 514.192C361.278 514.192 359.699 513.637 358.462 512.528C357.267 511.376 356.67 509.968 356.67 508.304C356.67 506.597 357.267 505.189 358.462 504.08C359.699 502.928 361.278 502.352 363.198 502.352C365.075 502.352 366.611 502.928 367.806 504.08C369.043 505.189 369.662 506.597 369.662 508.304C369.662 509.968 369.043 511.376 367.806 512.528C366.611 513.637 365.075 514.192 363.198 514.192ZM368.638 517.904V553.616H357.694V517.904H368.638ZM386.105 506.256V553.616H375.161V506.256H386.105ZM403.572 506.256V553.616H392.628V506.256H403.572ZM443.759 535.184C443.759 536.208 443.695 537.275 443.567 538.384H418.799C418.97 540.603 419.674 542.309 420.911 543.504C422.191 544.656 423.748 545.232 425.583 545.232C428.314 545.232 430.212 544.08 431.279 541.776H442.927C442.33 544.123 441.242 546.235 439.663 548.112C438.127 549.989 436.186 551.461 433.839 552.528C431.492 553.595 428.868 554.128 425.967 554.128C422.468 554.128 419.354 553.381 416.623 551.888C413.892 550.395 411.759 548.261 410.223 545.488C408.687 542.715 407.919 539.472 407.919 535.76C407.919 532.048 408.666 528.805 410.159 526.032C411.695 523.259 413.828 521.125 416.559 519.632C419.29 518.139 422.426 517.392 425.967 517.392C429.423 517.392 432.495 518.117 435.183 519.568C437.871 521.019 439.962 523.088 441.455 525.776C442.991 528.464 443.759 531.6 443.759 535.184ZM432.559 532.304C432.559 530.427 431.919 528.933 430.639 527.824C429.359 526.715 427.759 526.16 425.839 526.16C424.004 526.16 422.447 526.693 421.167 527.76C419.93 528.827 419.162 530.341 418.863 532.304H432.559ZM445.948 535.696C445.948 532.027 446.631 528.805 447.996 526.032C449.404 523.259 451.303 521.125 453.692 519.632C456.082 518.139 458.748 517.392 461.692 517.392C464.039 517.392 466.172 517.883 468.092 518.864C470.055 519.845 471.591 521.168 472.7 522.832V506.256H483.644V553.616H472.7V548.496C471.676 550.203 470.204 551.568 468.284 552.592C466.407 553.616 464.21 554.128 461.692 554.128C458.748 554.128 456.082 553.381 453.692 551.888C451.303 550.352 449.404 548.197 447.996 545.424C446.631 542.608 445.948 539.365 445.948 535.696ZM472.7 535.76C472.7 533.029 471.932 530.875 470.396 529.296C468.903 527.717 467.068 526.928 464.892 526.928C462.716 526.928 460.86 527.717 459.324 529.296C457.831 530.832 457.084 532.965 457.084 535.696C457.084 538.427 457.831 540.603 459.324 542.224C460.86 543.803 462.716 544.592 464.892 544.592C467.068 544.592 468.903 543.803 470.396 542.224C471.932 540.645 472.7 538.491 472.7 535.76ZM553.572 517.904L543.908 553.616H531.812L526.18 530.448L520.356 553.616H508.324L498.596 517.904H509.54L514.596 543.44L520.612 517.904H532.196L538.276 543.312L543.268 517.904H553.572ZM561.842 514.192C559.922 514.192 558.343 513.637 557.106 512.528C555.911 511.376 555.314 509.968 555.314 508.304C555.314 506.597 555.911 505.189 557.106 504.08C558.343 502.928 559.922 502.352 561.842 502.352C563.719 502.352 565.255 502.928 566.45 504.08C567.687 505.189 568.306 506.597 568.306 508.304C568.306 509.968 567.687 511.376 566.45 512.528C565.255 513.637 563.719 514.192 561.842 514.192ZM567.282 517.904V553.616H556.338V517.904H567.282ZM593.709 544.336V553.616H588.141C584.173 553.616 581.08 552.656 578.861 550.736C576.642 548.773 575.533 545.595 575.533 541.2V526.992H571.181V517.904H575.533V509.2H586.477V517.904H593.645V526.992H586.477V541.328C586.477 542.395 586.733 543.163 587.245 543.632C587.757 544.101 588.61 544.336 589.805 544.336H593.709ZM620.349 517.52C624.445 517.52 627.73 518.885 630.205 521.616C632.68 524.304 633.917 528.016 633.917 532.752V553.616H623.037V534.224C623.037 531.835 622.418 529.979 621.181 528.656C619.944 527.333 618.28 526.672 616.189 526.672C614.098 526.672 612.434 527.333 611.197 528.656C609.96 529.979 609.341 531.835 609.341 534.224V553.616H598.397V506.256H609.341V522.704C610.45 521.125 611.965 519.867 613.885 518.928C615.805 517.989 617.96 517.52 620.349 517.52Z" fill="white" fill-opacity="0.8"/>
<path d="M712.929 553.616L698.913 528.176H694.977V553.616H678.561V486.224H706.113C711.425 486.224 715.937 487.152 719.649 489.008C723.425 490.864 726.241 493.424 728.097 496.688C729.953 499.888 730.881 503.472 730.881 507.44C730.881 511.92 729.601 515.92 727.041 519.44C724.545 522.96 720.833 525.456 715.905 526.928L731.457 553.616H712.929ZM694.977 516.56H705.153C708.161 516.56 710.401 515.824 711.873 514.352C713.409 512.88 714.177 510.8 714.177 508.112C714.177 505.552 713.409 503.536 711.873 502.064C710.401 500.592 708.161 499.856 705.153 499.856H694.977V516.56ZM763.458 554.384C758.21 554.384 753.474 553.264 749.25 551.024C745.09 548.784 741.794 545.584 739.362 541.424C736.994 537.264 735.81 532.4 735.81 526.832C735.81 521.328 737.026 516.496 739.458 512.336C741.89 508.112 745.218 504.88 749.442 502.64C753.666 500.4 758.402 499.28 763.65 499.28C768.898 499.28 773.634 500.4 777.858 502.64C782.082 504.88 785.41 508.112 787.842 512.336C790.274 516.496 791.49 521.328 791.49 526.832C791.49 532.336 790.242 537.2 787.746 541.424C785.314 545.584 781.954 548.784 777.666 551.024C773.442 553.264 768.706 554.384 763.458 554.384ZM763.458 540.176C766.594 540.176 769.25 539.024 771.426 536.72C773.666 534.416 774.786 531.12 774.786 526.832C774.786 522.544 773.698 519.248 771.522 516.944C769.41 514.64 766.786 513.488 763.65 513.488C760.45 513.488 757.794 514.64 755.682 516.944C753.57 519.184 752.514 522.48 752.514 526.832C752.514 531.12 753.538 534.416 755.586 536.72C757.698 539.024 760.322 540.176 763.458 540.176ZM814.503 507.632C816.039 505.136 818.247 503.12 821.127 501.584C824.007 500.048 827.303 499.28 831.015 499.28C835.431 499.28 839.431 500.4 843.015 502.64C846.599 504.88 849.415 508.08 851.463 512.24C853.575 516.4 854.631 521.232 854.631 526.736C854.631 532.24 853.575 537.104 851.463 541.328C849.415 545.488 846.599 548.72 843.015 551.024C839.431 553.264 835.431 554.384 831.015 554.384C827.239 554.384 823.943 553.648 821.127 552.176C818.311 550.64 816.103 548.624 814.503 546.128V553.616H798.087V482.576H814.503V507.632ZM837.927 526.736C837.927 522.64 836.775 519.44 834.471 517.136C832.231 514.768 829.447 513.584 826.119 513.584C822.855 513.584 820.071 514.768 817.767 517.136C815.527 519.504 814.407 522.736 814.407 526.832C814.407 530.928 815.527 534.16 817.767 536.528C820.071 538.896 822.855 540.08 826.119 540.08C829.383 540.08 832.167 538.896 834.471 536.528C836.775 534.096 837.927 530.832 837.927 526.736ZM885.516 554.384C880.268 554.384 875.532 553.264 871.308 551.024C867.148 548.784 863.852 545.584 861.42 541.424C859.052 537.264 857.868 532.4 857.868 526.832C857.868 521.328 859.084 516.496 861.516 512.336C863.948 508.112 867.276 504.88 871.5 502.64C875.724 500.4 880.46 499.28 885.708 499.28C890.956 499.28 895.692 500.4 899.916 502.64C904.14 504.88 907.468 508.112 909.9 512.336C912.332 516.496 913.548 521.328 913.548 526.832C913.548 532.336 912.3 537.2 909.804 541.424C907.372 545.584 904.012 548.784 899.724 551.024C895.5 553.264 890.764 554.384 885.516 554.384ZM885.516 540.176C888.652 540.176 891.308 539.024 893.484 536.72C895.724 534.416 896.844 531.12 896.844 526.832C896.844 522.544 895.756 519.248 893.58 516.944C891.468 514.64 888.844 513.488 885.708 513.488C882.508 513.488 879.852 514.64 877.74 516.944C875.628 519.184 874.572 522.48 874.572 526.832C874.572 531.12 875.596 534.416 877.644 536.72C879.756 539.024 882.38 540.176 885.516 540.176ZM950.001 539.696V553.616H941.649C935.697 553.616 931.057 552.176 927.729 549.296C924.401 546.352 922.737 541.584 922.737 534.992V513.68H916.209V500.048H922.737V486.992H939.153V500.048H949.905V513.68H939.153V535.184C939.153 536.784 939.537 537.936 940.305 538.64C941.073 539.344 942.353 539.696 944.145 539.696H950.001ZM972 526.736C972 521.232 973.024 516.4 975.072 512.24C977.184 508.08 980.032 504.88 983.616 502.64C987.2 500.4 991.2 499.28 995.616 499.28C999.136 499.28 1002.34 500.016 1005.22 501.488C1008.16 502.96 1010.46 504.944 1012.13 507.44V482.576H1028.54V553.616H1012.13V545.936C1010.59 548.496 1008.38 550.544 1005.5 552.08C1002.69 553.616 999.392 554.384 995.616 554.384C991.2 554.384 987.2 553.264 983.616 551.024C980.032 548.72 977.184 545.488 975.072 541.328C973.024 537.104 972 532.24 972 526.736ZM1012.13 526.832C1012.13 522.736 1010.98 519.504 1008.67 517.136C1006.43 514.768 1003.68 513.584 1000.42 513.584C997.152 513.584 994.368 514.768 992.064 517.136C989.824 519.44 988.704 522.64 988.704 526.736C988.704 530.832 989.824 534.096 992.064 536.528C994.368 538.896 997.152 540.08 1000.42 540.08C1003.68 540.08 1006.43 538.896 1008.67 536.528C1010.98 534.16 1012.13 530.928 1012.13 526.832ZM1062.69 554.384C1057.44 554.384 1052.71 553.264 1048.48 551.024C1044.32 548.784 1041.03 545.584 1038.6 541.424C1036.23 537.264 1035.04 532.4 1035.04 526.832C1035.04 521.328 1036.26 516.496 1038.69 512.336C1041.12 508.112 1044.45 504.88 1048.68 502.64C1052.9 500.4 1057.64 499.28 1062.88 499.28C1068.13 499.28 1072.87 500.4 1077.09 502.64C1081.32 504.88 1084.64 508.112 1087.08 512.336C1089.51 516.496 1090.72 521.328 1090.72 526.832C1090.72 532.336 1089.48 537.2 1086.98 541.424C1084.55 545.584 1081.19 548.784 1076.9 551.024C1072.68 553.264 1067.94 554.384 1062.69 554.384ZM1062.69 540.176C1065.83 540.176 1068.48 539.024 1070.66 536.72C1072.9 534.416 1074.02 531.12 1074.02 526.832C1074.02 522.544 1072.93 519.248 1070.76 516.944C1068.64 514.64 1066.02 513.488 1062.88 513.488C1059.68 513.488 1057.03 514.64 1054.92 516.944C1052.8 519.184 1051.75 522.48 1051.75 526.832C1051.75 531.12 1052.77 534.416 1054.82 536.72C1056.93 539.024 1059.56 540.176 1062.69 540.176ZM1117.67 499.28C1121.45 499.28 1124.75 500.048 1127.56 501.584C1130.44 503.12 1132.65 505.136 1134.19 507.632V500.048H1150.6V553.52C1150.6 558.448 1149.61 562.896 1147.63 566.864C1145.71 570.896 1142.73 574.096 1138.7 576.464C1134.73 578.832 1129.77 580.016 1123.82 580.016C1115.88 580.016 1109.45 578.128 1104.52 574.352C1099.59 570.64 1096.78 565.584 1096.07 559.184H1112.3C1112.81 561.232 1114.03 562.832 1115.95 563.984C1117.87 565.2 1120.23 565.808 1123.05 565.808C1126.44 565.808 1129.13 564.816 1131.11 562.832C1133.16 560.912 1134.19 557.808 1134.19 553.52V545.936C1132.59 548.432 1130.38 550.48 1127.56 552.08C1124.75 553.616 1121.45 554.384 1117.67 554.384C1113.26 554.384 1109.26 553.264 1105.67 551.024C1102.09 548.72 1099.24 545.488 1097.13 541.328C1095.08 537.104 1094.06 532.24 1094.06 526.736C1094.06 521.232 1095.08 516.4 1097.13 512.24C1099.24 508.08 1102.09 504.88 1105.67 502.64C1109.26 500.4 1113.26 499.28 1117.67 499.28ZM1134.19 526.832C1134.19 522.736 1133.03 519.504 1130.73 517.136C1128.49 514.768 1125.74 513.584 1122.47 513.584C1119.21 513.584 1116.43 514.768 1114.12 517.136C1111.88 519.44 1110.76 522.64 1110.76 526.736C1110.76 530.832 1111.88 534.096 1114.12 536.528C1116.43 538.896 1119.21 540.08 1122.47 540.08C1125.74 540.08 1128.49 538.896 1130.73 536.528C1133.03 534.16 1134.19 530.928 1134.19 526.832ZM1182.16 554.384C1177.49 554.384 1173.33 553.584 1169.68 551.984C1166.03 550.384 1163.15 548.208 1161.04 545.456C1158.93 542.64 1157.74 539.504 1157.49 536.048H1173.71C1173.9 537.904 1174.77 539.408 1176.3 540.56C1177.84 541.712 1179.73 542.288 1181.97 542.288C1184.01 542.288 1185.58 541.904 1186.67 541.136C1187.82 540.304 1188.4 539.248 1188.4 537.968C1188.4 536.432 1187.6 535.312 1186 534.608C1184.4 533.84 1181.81 533.008 1178.22 532.112C1174.38 531.216 1171.18 530.288 1168.62 529.328C1166.06 528.304 1163.85 526.736 1162 524.624C1160.14 522.448 1159.21 519.536 1159.21 515.888C1159.21 512.816 1160.05 510.032 1161.71 507.536C1163.44 504.976 1165.93 502.96 1169.2 501.488C1172.53 500.016 1176.46 499.28 1181.01 499.28C1187.73 499.28 1193.01 500.944 1196.85 504.272C1200.75 507.6 1202.99 512.016 1203.57 517.52H1188.4C1188.14 515.664 1187.31 514.192 1185.9 513.104C1184.56 512.016 1182.77 511.472 1180.53 511.472C1178.61 511.472 1177.13 511.856 1176.11 512.624C1175.09 513.328 1174.57 514.32 1174.57 515.6C1174.57 517.136 1175.37 518.288 1176.97 519.056C1178.64 519.824 1181.2 520.592 1184.65 521.36C1188.62 522.384 1191.85 523.408 1194.35 524.432C1196.85 525.392 1199.02 526.992 1200.88 529.232C1202.8 531.408 1203.79 534.352 1203.85 538.064C1203.85 541.2 1202.96 544.016 1201.17 546.512C1199.44 548.944 1196.91 550.864 1193.58 552.272C1190.32 553.68 1186.51 554.384 1182.16 554.384Z" fill="#FFC800"/>
<path d="M34.7519 672.688V681.456H22.8479V717.616H11.9039V681.456H-0.000132799V672.688H34.7519ZM56.5004 718.128C53.0017 718.128 49.8444 717.381 47.0284 715.888C44.255 714.395 42.0577 712.261 40.4364 709.488C38.8577 706.715 38.0684 703.472 38.0684 699.76C38.0684 696.091 38.879 692.869 40.5004 690.096C42.1217 687.28 44.3404 685.125 47.1564 683.632C49.9724 682.139 53.1297 681.392 56.6284 681.392C60.127 681.392 63.2844 682.139 66.1004 683.632C68.9164 685.125 71.135 687.28 72.7564 690.096C74.3777 692.869 75.1884 696.091 75.1884 699.76C75.1884 703.429 74.3564 706.672 72.6924 709.488C71.071 712.261 68.831 714.395 65.9724 715.888C63.1564 717.381 59.999 718.128 56.5004 718.128ZM56.5004 708.656C58.591 708.656 60.3617 707.888 61.8124 706.352C63.3057 704.816 64.0524 702.619 64.0524 699.76C64.0524 696.901 63.327 694.704 61.8764 693.168C60.4684 691.632 58.719 690.864 56.6284 690.864C54.495 690.864 52.7244 691.632 51.3164 693.168C49.9084 694.661 49.2044 696.859 49.2044 699.76C49.2044 702.619 49.887 704.816 51.2524 706.352C52.6604 707.888 54.4097 708.656 56.5004 708.656ZM97.2504 718.128C93.7517 718.128 90.5944 717.381 87.7784 715.888C85.005 714.395 82.8077 712.261 81.1864 709.488C79.6077 706.715 78.8184 703.472 78.8184 699.76C78.8184 696.091 79.629 692.869 81.2504 690.096C82.8717 687.28 85.0904 685.125 87.9064 683.632C90.7224 682.139 93.8797 681.392 97.3784 681.392C100.877 681.392 104.034 682.139 106.85 683.632C109.666 685.125 111.885 687.28 113.506 690.096C115.128 692.869 115.938 696.091 115.938 699.76C115.938 703.429 115.106 706.672 113.442 709.488C111.821 712.261 109.581 714.395 106.722 715.888C103.906 717.381 100.749 718.128 97.2504 718.128ZM97.2504 708.656C99.341 708.656 101.112 707.888 102.562 706.352C104.056 704.816 104.802 702.619 104.802 699.76C104.802 696.901 104.077 694.704 102.626 693.168C101.218 691.632 99.469 690.864 97.3784 690.864C95.245 690.864 93.4744 691.632 92.0664 693.168C90.6584 694.661 89.9544 696.859 89.9544 699.76C89.9544 702.619 90.637 704.816 92.0024 706.352C93.4104 707.888 95.1597 708.656 97.2504 708.656ZM180.875 681.52C185.312 681.52 188.832 682.864 191.435 685.552C194.08 688.24 195.403 691.973 195.403 696.752V717.616H184.523V698.224C184.523 695.92 183.904 694.149 182.667 692.912C181.472 691.632 179.808 690.992 177.675 690.992C175.542 690.992 173.856 691.632 172.619 692.912C171.424 694.149 170.827 695.92 170.827 698.224V717.616H159.947V698.224C159.947 695.92 159.328 694.149 158.091 692.912C156.896 691.632 155.232 690.992 153.099 690.992C150.966 690.992 149.28 691.632 148.043 692.912C146.848 694.149 146.251 695.92 146.251 698.224V717.616H135.307V681.904H146.251V686.384C147.36 684.891 148.811 683.717 150.603 682.864C152.395 681.968 154.422 681.52 156.683 681.52C159.371 681.52 161.76 682.096 163.851 683.248C165.984 684.4 167.648 686.043 168.843 688.176C170.08 686.213 171.766 684.613 173.899 683.376C176.032 682.139 178.358 681.52 180.875 681.52ZM238.321 681.904V717.616H227.377V712.752C226.268 714.331 224.753 715.611 222.833 716.592C220.956 717.531 218.865 718 216.561 718C213.83 718 211.42 717.403 209.329 716.208C207.238 714.971 205.617 713.2 204.465 710.896C203.313 708.592 202.737 705.883 202.737 702.768V681.904H213.617V701.296C213.617 703.685 214.236 705.541 215.473 706.864C216.71 708.187 218.374 708.848 220.465 708.848C222.598 708.848 224.284 708.187 225.521 706.864C226.758 705.541 227.377 703.685 227.377 701.296V681.904H238.321ZM244.006 699.76C244.006 696.048 244.753 692.805 246.246 690.032C247.782 687.259 249.894 685.125 252.582 683.632C255.313 682.139 258.427 681.392 261.926 681.392C266.406 681.392 270.139 682.565 273.126 684.912C276.155 687.259 278.139 690.565 279.078 694.832H267.43C266.449 692.101 264.55 690.736 261.734 690.736C259.729 690.736 258.129 691.525 256.934 693.104C255.739 694.64 255.142 696.859 255.142 699.76C255.142 702.661 255.739 704.901 256.934 706.48C258.129 708.016 259.729 708.784 261.734 708.784C264.55 708.784 266.449 707.419 267.43 704.688H279.078C278.139 708.869 276.155 712.155 273.126 714.544C270.097 716.933 266.363 718.128 261.926 718.128C258.427 718.128 255.313 717.381 252.582 715.888C249.894 714.395 247.782 712.261 246.246 709.488C244.753 706.715 244.006 703.472 244.006 699.76ZM306.884 681.52C310.98 681.52 314.265 682.885 316.74 685.616C319.215 688.304 320.452 692.016 320.452 696.752V717.616H309.572V698.224C309.572 695.835 308.953 693.979 307.716 692.656C306.479 691.333 304.815 690.672 302.724 690.672C300.633 690.672 298.969 691.333 297.732 692.656C296.495 693.979 295.876 695.835 295.876 698.224V717.616H284.932V670.256H295.876V686.704C296.985 685.125 298.5 683.867 300.42 682.928C302.34 681.989 304.495 681.52 306.884 681.52ZM366.568 699.76C366.568 696.048 367.315 692.805 368.808 690.032C370.344 687.259 372.456 685.125 375.144 683.632C377.875 682.139 380.99 681.392 384.488 681.392C388.968 681.392 392.702 682.565 395.688 684.912C398.718 687.259 400.702 690.565 401.64 694.832H389.992C389.011 692.101 387.112 690.736 384.296 690.736C382.291 690.736 380.691 691.525 379.496 693.104C378.302 694.64 377.704 696.859 377.704 699.76C377.704 702.661 378.302 704.901 379.496 706.48C380.691 708.016 382.291 708.784 384.296 708.784C387.112 708.784 389.011 707.419 389.992 704.688H401.64C400.702 708.869 398.718 712.155 395.688 714.544C392.659 716.933 388.926 718.128 384.488 718.128C380.99 718.128 377.875 717.381 375.144 715.888C372.456 714.395 370.344 712.261 368.808 709.488C367.315 706.715 366.568 703.472 366.568 699.76ZM423.75 718.128C420.252 718.128 417.094 717.381 414.278 715.888C411.505 714.395 409.308 712.261 407.686 709.488C406.108 706.715 405.318 703.472 405.318 699.76C405.318 696.091 406.129 692.869 407.75 690.096C409.372 687.28 411.59 685.125 414.406 683.632C417.222 682.139 420.38 681.392 423.878 681.392C427.377 681.392 430.534 682.139 433.35 683.632C436.166 685.125 438.385 687.28 440.006 690.096C441.628 692.869 442.438 696.091 442.438 699.76C442.438 703.429 441.606 706.672 439.942 709.488C438.321 712.261 436.081 714.395 433.222 715.888C430.406 717.381 427.249 718.128 423.75 718.128ZM423.75 708.656C425.841 708.656 427.612 707.888 429.062 706.352C430.556 704.816 431.302 702.619 431.302 699.76C431.302 696.901 430.577 694.704 429.126 693.168C427.718 691.632 425.969 690.864 423.878 690.864C421.745 690.864 419.974 691.632 418.566 693.168C417.158 694.661 416.454 696.859 416.454 699.76C416.454 702.619 417.137 704.816 418.502 706.352C419.91 707.888 421.66 708.656 423.75 708.656ZM470.004 681.52C474.186 681.52 477.514 682.885 479.988 685.616C482.506 688.304 483.764 692.016 483.764 696.752V717.616H472.884V698.224C472.884 695.835 472.266 693.979 471.028 692.656C469.791 691.333 468.127 690.672 466.036 690.672C463.946 690.672 462.282 691.333 461.044 692.656C459.807 693.979 459.188 695.835 459.188 698.224V717.616H448.244V681.904H459.188V686.64C460.298 685.061 461.791 683.824 463.668 682.928C465.546 681.989 467.658 681.52 470.004 681.52ZM504.937 681.392C507.455 681.392 509.652 681.904 511.529 682.928C513.449 683.952 514.921 685.296 515.945 686.96V681.904H526.889V717.552C526.889 720.837 526.228 723.803 524.905 726.448C523.625 729.136 521.641 731.269 518.953 732.848C516.308 734.427 513.001 735.216 509.033 735.216C503.743 735.216 499.455 733.957 496.169 731.44C492.884 728.965 491.007 725.595 490.537 721.328H501.353C501.695 722.693 502.505 723.76 503.785 724.528C505.065 725.339 506.644 725.744 508.521 725.744C510.783 725.744 512.575 725.083 513.897 723.76C515.263 722.48 515.945 720.411 515.945 717.552V712.496C514.879 714.16 513.407 715.525 511.529 716.592C509.652 717.616 507.455 718.128 504.937 718.128C501.993 718.128 499.327 717.381 496.937 715.888C494.548 714.352 492.649 712.197 491.241 709.424C489.876 706.608 489.193 703.365 489.193 699.696C489.193 696.027 489.876 692.805 491.241 690.032C492.649 687.259 494.548 685.125 496.937 683.632C499.327 682.139 501.993 681.392 504.937 681.392ZM515.945 699.76C515.945 697.029 515.177 694.875 513.641 693.296C512.148 691.717 510.313 690.928 508.137 690.928C505.961 690.928 504.105 691.717 502.569 693.296C501.076 694.832 500.329 696.965 500.329 699.696C500.329 702.427 501.076 704.603 502.569 706.224C504.105 707.803 505.961 708.592 508.137 708.592C510.313 708.592 512.148 707.803 513.641 706.224C515.177 704.645 515.945 702.491 515.945 699.76ZM568.471 699.184C568.471 700.208 568.407 701.275 568.279 702.384H543.511C543.682 704.603 544.386 706.309 545.623 707.504C546.903 708.656 548.46 709.232 550.295 709.232C553.026 709.232 554.924 708.08 555.991 705.776H567.639C567.042 708.123 565.954 710.235 564.375 712.112C562.839 713.989 560.898 715.461 558.551 716.528C556.204 717.595 553.58 718.128 550.679 718.128C547.18 718.128 544.066 717.381 541.335 715.888C538.604 714.395 536.471 712.261 534.935 709.488C533.399 706.715 532.631 703.472 532.631 699.76C532.631 696.048 533.378 692.805 534.871 690.032C536.407 687.259 538.54 685.125 541.271 683.632C544.002 682.139 547.138 681.392 550.679 681.392C554.135 681.392 557.207 682.117 559.895 683.568C562.583 685.019 564.674 687.088 566.167 689.776C567.703 692.464 568.471 695.6 568.471 699.184ZM557.271 696.304C557.271 694.427 556.631 692.933 555.351 691.824C554.071 690.715 552.471 690.16 550.551 690.16C548.716 690.16 547.159 690.693 545.879 691.76C544.642 692.827 543.874 694.341 543.575 696.304H557.271ZM588.772 718.128C585.658 718.128 582.884 717.595 580.452 716.528C578.02 715.461 576.1 714.011 574.692 712.176C573.284 710.299 572.495 708.208 572.324 705.904H583.14C583.268 707.141 583.844 708.144 584.868 708.912C585.892 709.68 587.151 710.064 588.644 710.064C590.01 710.064 591.055 709.808 591.78 709.296C592.548 708.741 592.932 708.037 592.932 707.184C592.932 706.16 592.399 705.413 591.332 704.944C590.266 704.432 588.538 703.877 586.148 703.28C583.588 702.683 581.455 702.064 579.748 701.424C578.042 700.741 576.57 699.696 575.332 698.288C574.095 696.837 573.476 694.896 573.476 692.464C573.476 690.416 574.031 688.56 575.14 686.896C576.292 685.189 577.956 683.845 580.132 682.864C582.351 681.883 584.975 681.392 588.004 681.392C592.484 681.392 596.004 682.501 598.564 684.72C601.167 686.939 602.66 689.883 603.044 693.552H592.932C592.762 692.315 592.207 691.333 591.268 690.608C590.372 689.883 589.178 689.52 587.684 689.52C586.404 689.52 585.423 689.776 584.74 690.288C584.058 690.757 583.716 691.419 583.716 692.272C583.716 693.296 584.25 694.064 585.316 694.576C586.426 695.088 588.132 695.6 590.436 696.112C593.082 696.795 595.236 697.477 596.9 698.16C598.564 698.8 600.015 699.867 601.252 701.36C602.532 702.811 603.194 704.773 603.236 707.248C603.236 709.339 602.639 711.216 601.444 712.88C600.292 714.501 598.607 715.781 596.388 716.72C594.212 717.659 591.674 718.128 588.772 718.128ZM629.836 708.336V717.616H624.268C620.3 717.616 617.207 716.656 614.988 714.736C612.769 712.773 611.66 709.595 611.66 705.2V690.992H607.308V681.904H611.66V673.2H622.604V681.904H629.772V690.992H622.604V705.328C622.604 706.395 622.86 707.163 623.372 707.632C623.884 708.101 624.737 708.336 625.932 708.336H629.836ZM641.436 678.192C639.516 678.192 637.937 677.637 636.7 676.528C635.505 675.376 634.908 673.968 634.908 672.304C634.908 670.597 635.505 669.189 636.7 668.08C637.937 666.928 639.516 666.352 641.436 666.352C643.313 666.352 644.849 666.928 646.044 668.08C647.281 669.189 647.9 670.597 647.9 672.304C647.9 673.968 647.281 675.376 646.044 676.528C644.849 677.637 643.313 678.192 641.436 678.192ZM646.876 681.904V717.616H635.932V681.904H646.876ZM671.063 718.128C667.564 718.128 664.407 717.381 661.591 715.888C658.818 714.395 656.62 712.261 654.999 709.488C653.42 706.715 652.631 703.472 652.631 699.76C652.631 696.091 653.442 692.869 655.063 690.096C656.684 687.28 658.903 685.125 661.719 683.632C664.535 682.139 667.692 681.392 671.191 681.392C674.69 681.392 677.847 682.139 680.663 683.632C683.479 685.125 685.698 687.28 687.319 690.096C688.94 692.869 689.751 696.091 689.751 699.76C689.751 703.429 688.919 706.672 687.255 709.488C685.634 712.261 683.394 714.395 680.535 715.888C677.719 717.381 674.562 718.128 671.063 718.128ZM671.063 708.656C673.154 708.656 674.924 707.888 676.375 706.352C677.868 704.816 678.615 702.619 678.615 699.76C678.615 696.901 677.89 694.704 676.439 693.168C675.031 691.632 673.282 690.864 671.191 690.864C669.058 690.864 667.287 691.632 665.879 693.168C664.471 694.661 663.767 696.859 663.767 699.76C663.767 702.619 664.45 704.816 665.815 706.352C667.223 707.888 668.972 708.656 671.063 708.656ZM717.317 681.52C721.498 681.52 724.826 682.885 727.301 685.616C729.818 688.304 731.077 692.016 731.077 696.752V717.616H720.197V698.224C720.197 695.835 719.578 693.979 718.341 692.656C717.104 691.333 715.44 690.672 713.349 690.672C711.258 690.672 709.594 691.333 708.357 692.656C707.12 693.979 706.501 695.835 706.501 698.224V717.616H695.557V681.904H706.501V686.64C707.61 685.061 709.104 683.824 710.981 682.928C712.858 681.989 714.97 681.52 717.317 681.52ZM795.625 718.128C792.127 718.128 788.969 717.381 786.153 715.888C783.38 714.395 781.183 712.261 779.561 709.488C777.983 706.715 777.193 703.472 777.193 699.76C777.193 696.091 778.004 692.869 779.625 690.096C781.247 687.28 783.465 685.125 786.281 683.632C789.097 682.139 792.255 681.392 795.753 681.392C799.252 681.392 802.409 682.139 805.225 683.632C808.041 685.125 810.26 687.28 811.881 690.096C813.503 692.869 814.313 696.091 814.313 699.76C814.313 703.429 813.481 706.672 811.817 709.488C810.196 712.261 807.956 714.395 805.097 715.888C802.281 717.381 799.124 718.128 795.625 718.128ZM795.625 708.656C797.716 708.656 799.487 707.888 800.937 706.352C802.431 704.816 803.177 702.619 803.177 699.76C803.177 696.901 802.452 694.704 801.001 693.168C799.593 691.632 797.844 690.864 795.753 690.864C793.62 690.864 791.849 691.632 790.441 693.168C789.033 694.661 788.329 696.859 788.329 699.76C788.329 702.619 789.012 704.816 790.377 706.352C791.785 707.888 793.535 708.656 795.625 708.656ZM841.879 681.52C846.061 681.52 849.389 682.885 851.863 685.616C854.381 688.304 855.639 692.016 855.639 696.752V717.616H844.759V698.224C844.759 695.835 844.141 693.979 842.903 692.656C841.666 691.333 840.002 690.672 837.911 690.672C835.821 690.672 834.157 691.333 832.919 692.656C831.682 693.979 831.063 695.835 831.063 698.224V717.616H820.119V681.904H831.063V686.64C832.173 685.061 833.666 683.824 835.543 682.928C837.421 681.989 839.533 681.52 841.879 681.52ZM887.751 687.856C889.031 685.893 890.631 684.357 892.551 683.248C894.471 682.096 896.604 681.52 898.951 681.52V693.104H895.943C893.212 693.104 891.164 693.701 889.799 694.896C888.434 696.048 887.751 698.096 887.751 701.04V717.616H876.807V681.904H887.751V687.856ZM920.438 718.128C916.939 718.128 913.782 717.381 910.966 715.888C908.193 714.395 905.995 712.261 904.374 709.488C902.795 706.715 902.006 703.472 902.006 699.76C902.006 696.091 902.817 692.869 904.438 690.096C906.059 687.28 908.278 685.125 911.094 683.632C913.91 682.139 917.067 681.392 920.566 681.392C924.065 681.392 927.222 682.139 930.038 683.632C932.854 685.125 935.073 687.28 936.694 690.096C938.315 692.869 939.126 696.091 939.126 699.76C939.126 703.429 938.294 706.672 936.63 709.488C935.009 712.261 932.769 714.395 929.91 715.888C927.094 717.381 923.937 718.128 920.438 718.128ZM920.438 708.656C922.529 708.656 924.299 707.888 925.75 706.352C927.243 704.816 927.99 702.619 927.99 699.76C927.99 696.901 927.265 694.704 925.814 693.168C924.406 691.632 922.657 690.864 920.566 690.864C918.433 690.864 916.662 691.632 915.254 693.168C913.846 694.661 913.142 696.859 913.142 699.76C913.142 702.619 913.825 704.816 915.19 706.352C916.598 707.888 918.347 708.656 920.438 708.656ZM942.756 699.696C942.756 696.027 943.439 692.805 944.804 690.032C946.212 687.259 948.111 685.125 950.5 683.632C952.889 682.139 955.556 681.392 958.5 681.392C961.017 681.392 963.215 681.904 965.092 682.928C967.012 683.952 968.484 685.296 969.508 686.96V681.904H980.452V717.616H969.508V712.56C968.441 714.224 966.948 715.568 965.028 716.592C963.151 717.616 960.953 718.128 958.436 718.128C955.535 718.128 952.889 717.381 950.5 715.888C948.111 714.352 946.212 712.197 944.804 709.424C943.439 706.608 942.756 703.365 942.756 699.696ZM969.508 699.76C969.508 697.029 968.74 694.875 967.204 693.296C965.711 691.717 963.876 690.928 961.7 690.928C959.524 690.928 957.668 691.717 956.132 693.296C954.639 694.832 953.892 696.965 953.892 699.696C953.892 702.427 954.639 704.603 956.132 706.224C957.668 707.803 959.524 708.592 961.7 708.592C963.876 708.592 965.711 707.803 967.204 706.224C968.74 704.645 969.508 702.491 969.508 699.76ZM986.193 699.696C986.193 696.027 986.876 692.805 988.241 690.032C989.649 687.259 991.548 685.125 993.937 683.632C996.327 682.139 998.993 681.392 1001.94 681.392C1004.28 681.392 1006.42 681.883 1008.34 682.864C1010.3 683.845 1011.84 685.168 1012.95 686.832V670.256H1023.89V717.616H1012.95V712.496C1011.92 714.203 1010.45 715.568 1008.53 716.592C1006.65 717.616 1004.45 718.128 1001.94 718.128C998.993 718.128 996.327 717.381 993.937 715.888C991.548 714.352 989.649 712.197 988.241 709.424C986.876 706.608 986.193 703.365 986.193 699.696ZM1012.95 699.76C1012.95 697.029 1012.18 694.875 1010.64 693.296C1009.15 691.717 1007.31 690.928 1005.14 690.928C1002.96 690.928 1001.11 691.717 999.569 693.296C998.076 694.832 997.329 696.965 997.329 699.696C997.329 702.427 998.076 704.603 999.569 706.224C1001.11 707.803 1002.96 708.592 1005.14 708.592C1007.31 708.592 1009.15 707.803 1010.64 706.224C1012.18 704.645 1012.95 702.491 1012.95 699.76ZM1046.33 718.128C1043.22 718.128 1040.45 717.595 1038.01 716.528C1035.58 715.461 1033.66 714.011 1032.25 712.176C1030.85 710.299 1030.06 708.208 1029.89 705.904H1040.7C1040.83 707.141 1041.41 708.144 1042.43 708.912C1043.45 709.68 1044.71 710.064 1046.21 710.064C1047.57 710.064 1048.62 709.808 1049.34 709.296C1050.11 708.741 1050.49 708.037 1050.49 707.184C1050.49 706.16 1049.96 705.413 1048.89 704.944C1047.83 704.432 1046.1 703.877 1043.71 703.28C1041.15 702.683 1039.02 702.064 1037.31 701.424C1035.6 700.741 1034.13 699.696 1032.89 698.288C1031.66 696.837 1031.04 694.896 1031.04 692.464C1031.04 690.416 1031.59 688.56 1032.7 686.896C1033.85 685.189 1035.52 683.845 1037.69 682.864C1039.91 681.883 1042.54 681.392 1045.57 681.392C1050.05 681.392 1053.57 682.501 1056.13 684.72C1058.73 686.939 1060.22 689.883 1060.61 693.552H1050.49C1050.32 692.315 1049.77 691.333 1048.83 690.608C1047.93 689.883 1046.74 689.52 1045.25 689.52C1043.97 689.52 1042.99 689.776 1042.3 690.288C1041.62 690.757 1041.28 691.419 1041.28 692.272C1041.28 693.296 1041.81 694.064 1042.88 694.576C1043.99 695.088 1045.69 695.6 1048 696.112C1050.64 696.795 1052.8 697.477 1054.46 698.16C1056.13 698.8 1057.58 699.867 1058.81 701.36C1060.09 702.811 1060.76 704.773 1060.8 707.248C1060.8 709.339 1060.2 711.216 1059.01 712.88C1057.85 714.501 1056.17 715.781 1053.95 716.72C1051.77 717.659 1049.24 718.128 1046.33 718.128ZM1079.27 707.504L1072.17 725.872H1065.19L1068.9 707.504H1079.27ZM13.3759 763.96C14.4425 762.296 15.9145 760.952 17.7919 759.928C19.6692 758.904 21.8665 758.392 24.3839 758.392C27.3279 758.392 29.9945 759.139 32.3839 760.632C34.7732 762.125 36.6505 764.259 38.0159 767.032C39.4239 769.805 40.1279 773.027 40.1279 776.696C40.1279 780.365 39.4239 783.608 38.0159 786.424C36.6505 789.197 34.7732 791.352 32.3839 792.888C29.9945 794.381 27.3279 795.128 24.3839 795.128C21.9092 795.128 19.7119 794.616 17.7919 793.592C15.9145 792.568 14.4425 791.245 13.3759 789.624V811.64H2.43187V758.904H13.3759V763.96ZM28.9919 776.696C28.9919 773.965 28.2239 771.832 26.6879 770.296C25.1945 768.717 23.3385 767.928 21.1199 767.928C18.9439 767.928 17.0879 768.717 15.5519 770.296C14.0585 771.875 13.3119 774.029 13.3119 776.76C13.3119 779.491 14.0585 781.645 15.5519 783.224C17.0879 784.803 18.9439 785.592 21.1199 785.592C23.2959 785.592 25.1519 784.803 26.6879 783.224C28.2239 781.603 28.9919 779.427 28.9919 776.696ZM79.5334 776.184C79.5334 777.208 79.4694 778.275 79.3414 779.384H54.5734C54.744 781.603 55.448 783.309 56.6854 784.504C57.9654 785.656 59.5227 786.232 61.3574 786.232C64.088 786.232 65.9867 785.08 67.0534 782.776H78.7014C78.104 785.123 77.016 787.235 75.4374 789.112C73.9014 790.989 71.96 792.461 69.6134 793.528C67.2667 794.595 64.6427 795.128 61.7414 795.128C58.2427 795.128 55.128 794.381 52.3974 792.888C49.6667 791.395 47.5334 789.261 45.9974 786.488C44.4614 783.715 43.6934 780.472 43.6934 776.76C43.6934 773.048 44.44 769.805 45.9334 767.032C47.4694 764.259 49.6027 762.125 52.3334 760.632C55.064 759.139 58.2 758.392 61.7414 758.392C65.1974 758.392 68.2694 759.117 70.9574 760.568C73.6454 762.019 75.736 764.088 77.2294 766.776C78.7654 769.464 79.5334 772.6 79.5334 776.184ZM68.3334 773.304C68.3334 771.427 67.6934 769.933 66.4134 768.824C65.1334 767.715 63.5334 767.16 61.6134 767.16C59.7787 767.16 58.2214 767.693 56.9414 768.76C55.704 769.827 54.936 771.341 54.6374 773.304H68.3334ZM101.563 795.128C98.0642 795.128 94.9069 794.381 92.0909 792.888C89.3175 791.395 87.1202 789.261 85.4989 786.488C83.9202 783.715 83.1309 780.472 83.1309 776.76C83.1309 773.091 83.9415 769.869 85.5629 767.096C87.1842 764.28 89.4029 762.125 92.2189 760.632C95.0349 759.139 98.1922 758.392 101.691 758.392C105.19 758.392 108.347 759.139 111.163 760.632C113.979 762.125 116.198 764.28 117.819 767.096C119.44 769.869 120.251 773.091 120.251 776.76C120.251 780.429 119.419 783.672 117.755 786.488C116.134 789.261 113.894 791.395 111.035 792.888C108.219 794.381 105.062 795.128 101.563 795.128ZM101.563 785.656C103.654 785.656 105.424 784.888 106.875 783.352C108.368 781.816 109.115 779.619 109.115 776.76C109.115 773.901 108.39 771.704 106.939 770.168C105.531 768.632 103.782 767.864 101.691 767.864C99.5575 767.864 97.7869 768.632 96.3789 770.168C94.9709 771.661 94.2669 773.859 94.2669 776.76C94.2669 779.619 94.9495 781.816 96.3149 783.352C97.7229 784.888 99.4722 785.656 101.563 785.656ZM137.001 763.96C138.068 762.296 139.54 760.952 141.417 759.928C143.294 758.904 145.492 758.392 148.009 758.392C150.953 758.392 153.62 759.139 156.009 760.632C158.398 762.125 160.276 764.259 161.641 767.032C163.049 769.805 163.753 773.027 163.753 776.696C163.753 780.365 163.049 783.608 161.641 786.424C160.276 789.197 158.398 791.352 156.009 792.888C153.62 794.381 150.953 795.128 148.009 795.128C145.534 795.128 143.337 794.616 141.417 793.592C139.54 792.568 138.068 791.245 137.001 789.624V811.64H126.057V758.904H137.001V763.96ZM152.617 776.696C152.617 773.965 151.849 771.832 150.313 770.296C148.82 768.717 146.964 767.928 144.745 767.928C142.569 767.928 140.713 768.717 139.177 770.296C137.684 771.875 136.937 774.029 136.937 776.76C136.937 779.491 137.684 781.645 139.177 783.224C140.713 784.803 142.569 785.592 144.745 785.592C146.921 785.592 148.777 784.803 150.313 783.224C151.849 781.603 152.617 779.427 152.617 776.696ZM180.438 747.256V794.616H169.494V747.256H180.438ZM222.033 776.184C222.033 777.208 221.969 778.275 221.841 779.384H197.073C197.244 781.603 197.948 783.309 199.185 784.504C200.465 785.656 202.023 786.232 203.857 786.232C206.588 786.232 208.487 785.08 209.553 782.776H221.201C220.604 785.123 219.516 787.235 217.937 789.112C216.401 790.989 214.46 792.461 212.113 793.528C209.767 794.595 207.143 795.128 204.241 795.128C200.743 795.128 197.628 794.381 194.897 792.888C192.167 791.395 190.033 789.261 188.497 786.488C186.961 783.715 186.193 780.472 186.193 776.76C186.193 773.048 186.94 769.805 188.433 767.032C189.969 764.259 192.103 762.125 194.833 760.632C197.564 759.139 200.7 758.392 204.241 758.392C207.697 758.392 210.769 759.117 213.457 760.568C216.145 762.019 218.236 764.088 219.729 766.776C221.265 769.464 222.033 772.6 222.033 776.184ZM210.833 773.304C210.833 771.427 210.193 769.933 208.913 768.824C207.633 767.715 206.033 767.16 204.113 767.16C202.279 767.16 200.721 767.693 199.441 768.76C198.204 769.827 197.436 771.341 197.137 773.304H210.833ZM261.273 785.336V794.616H255.705C251.737 794.616 248.644 793.656 246.425 791.736C244.207 789.773 243.097 786.595 243.097 782.2V767.992H238.745V758.904H243.097V750.2H254.041V758.904H261.209V767.992H254.041V782.328C254.041 783.395 254.297 784.163 254.809 784.632C255.321 785.101 256.175 785.336 257.369 785.336H261.273ZM289.321 758.52C293.417 758.52 296.703 759.885 299.177 762.616C301.652 765.304 302.889 769.016 302.889 773.752V794.616H292.009V775.224C292.009 772.835 291.391 770.979 290.153 769.656C288.916 768.333 287.252 767.672 285.161 767.672C283.071 767.672 281.407 768.333 280.169 769.656C278.932 770.979 278.313 772.835 278.313 775.224V794.616H267.369V747.256H278.313V763.704C279.423 762.125 280.937 760.867 282.857 759.928C284.777 758.989 286.932 758.52 289.321 758.52ZM344.158 776.184C344.158 777.208 344.094 778.275 343.966 779.384H319.198C319.369 781.603 320.073 783.309 321.31 784.504C322.59 785.656 324.148 786.232 325.982 786.232C328.713 786.232 330.612 785.08 331.678 782.776H343.326C342.729 785.123 341.641 787.235 340.062 789.112C338.526 790.989 336.585 792.461 334.238 793.528C331.892 794.595 329.268 795.128 326.366 795.128C322.868 795.128 319.753 794.381 317.022 792.888C314.292 791.395 312.158 789.261 310.622 786.488C309.086 783.715 308.318 780.472 308.318 776.76C308.318 773.048 309.065 769.805 310.558 767.032C312.094 764.259 314.228 762.125 316.958 760.632C319.689 759.139 322.825 758.392 326.366 758.392C329.822 758.392 332.894 759.117 335.582 760.568C338.27 762.019 340.361 764.088 341.854 766.776C343.39 769.464 344.158 772.6 344.158 776.184ZM332.958 773.304C332.958 771.427 332.318 769.933 331.038 768.824C329.758 767.715 328.158 767.16 326.238 767.16C324.404 767.16 322.846 767.693 321.566 768.76C320.329 769.827 319.561 771.341 319.262 773.304H332.958ZM386.412 758.904L364.012 811.576H352.236L360.428 793.4L345.9 758.904H358.124L366.38 781.24L374.572 758.904H386.412ZM421.852 767.992H415.964V794.616H405.02V767.992H401.052V758.904H405.02V757.88C405.02 753.485 406.279 750.157 408.796 747.896C411.313 745.592 415.004 744.44 419.868 744.44C420.679 744.44 421.276 744.461 421.66 744.504V753.784C419.569 753.656 418.097 753.955 417.244 754.68C416.391 755.405 415.964 756.707 415.964 758.584V758.904H421.852V767.992ZM432.498 755.192C430.578 755.192 429 754.637 427.762 753.528C426.568 752.376 425.97 750.968 425.97 749.304C425.97 747.597 426.568 746.189 427.762 745.08C429 743.928 430.578 743.352 432.498 743.352C434.376 743.352 435.912 743.928 437.106 745.08C438.344 746.189 438.962 747.597 438.962 749.304C438.962 750.968 438.344 752.376 437.106 753.528C435.912 754.637 434.376 755.192 432.498 755.192ZM437.938 758.904V794.616H426.994V758.904H437.938ZM459.437 758.392C461.955 758.392 464.152 758.904 466.029 759.928C467.949 760.952 469.421 762.296 470.445 763.96V758.904H481.389V794.552C481.389 797.837 480.728 800.803 479.405 803.448C478.125 806.136 476.141 808.269 473.453 809.848C470.808 811.427 467.501 812.216 463.533 812.216C458.243 812.216 453.955 810.957 450.669 808.44C447.384 805.965 445.507 802.595 445.037 798.328H455.853C456.195 799.693 457.005 800.76 458.285 801.528C459.565 802.339 461.144 802.744 463.021 802.744C465.283 802.744 467.075 802.083 468.397 800.76C469.763 799.48 470.445 797.411 470.445 794.552V789.496C469.379 791.16 467.907 792.525 466.029 793.592C464.152 794.616 461.955 795.128 459.437 795.128C456.493 795.128 453.827 794.381 451.437 792.888C449.048 791.352 447.149 789.197 445.741 786.424C444.376 783.608 443.693 780.365 443.693 776.696C443.693 773.027 444.376 769.805 445.741 767.032C447.149 764.259 449.048 762.125 451.437 760.632C453.827 759.139 456.493 758.392 459.437 758.392ZM470.445 776.76C470.445 774.029 469.677 771.875 468.141 770.296C466.648 768.717 464.813 767.928 462.637 767.928C460.461 767.928 458.605 768.717 457.069 770.296C455.576 771.832 454.829 773.965 454.829 776.696C454.829 779.427 455.576 781.603 457.069 783.224C458.605 784.803 460.461 785.592 462.637 785.592C464.813 785.592 466.648 784.803 468.141 783.224C469.677 781.645 470.445 779.491 470.445 776.76ZM511.259 758.52C515.355 758.52 518.64 759.885 521.115 762.616C523.59 765.304 524.827 769.016 524.827 773.752V794.616H513.947V775.224C513.947 772.835 513.328 770.979 512.091 769.656C510.854 768.333 509.19 767.672 507.099 767.672C505.008 767.672 503.344 768.333 502.107 769.656C500.87 770.979 500.251 772.835 500.251 775.224V794.616H489.307V747.256H500.251V763.704C501.36 762.125 502.875 760.867 504.795 759.928C506.715 758.989 508.87 758.52 511.259 758.52ZM552.336 785.336V794.616H546.768C542.8 794.616 539.707 793.656 537.488 791.736C535.269 789.773 534.16 786.595 534.16 782.2V767.992H529.808V758.904H534.16V750.2H545.104V758.904H552.272V767.992H545.104V782.328C545.104 783.395 545.36 784.163 545.872 784.632C546.384 785.101 547.237 785.336 548.432 785.336H552.336ZM563.936 755.192C562.016 755.192 560.437 754.637 559.2 753.528C558.005 752.376 557.408 750.968 557.408 749.304C557.408 747.597 558.005 746.189 559.2 745.08C560.437 743.928 562.016 743.352 563.936 743.352C565.813 743.352 567.349 743.928 568.544 745.08C569.781 746.189 570.4 747.597 570.4 749.304C570.4 750.968 569.781 752.376 568.544 753.528C567.349 754.637 565.813 755.192 563.936 755.192ZM569.376 758.904V794.616H558.432V758.904H569.376ZM599.067 758.52C603.248 758.52 606.576 759.885 609.051 762.616C611.568 765.304 612.827 769.016 612.827 773.752V794.616H601.947V775.224C601.947 772.835 601.328 770.979 600.091 769.656C598.854 768.333 597.19 767.672 595.099 767.672C593.008 767.672 591.344 768.333 590.107 769.656C588.87 770.979 588.251 772.835 588.251 775.224V794.616H577.307V758.904H588.251V763.64C589.36 762.061 590.854 760.824 592.731 759.928C594.608 758.989 596.72 758.52 599.067 758.52ZM634 758.392C636.517 758.392 638.715 758.904 640.592 759.928C642.512 760.952 643.984 762.296 645.008 763.96V758.904H655.952V794.552C655.952 797.837 655.291 800.803 653.968 803.448C652.688 806.136 650.704 808.269 648.016 809.848C645.371 811.427 642.064 812.216 638.096 812.216C632.805 812.216 628.517 810.957 625.232 808.44C621.947 805.965 620.069 802.595 619.6 798.328H630.416C630.757 799.693 631.568 800.76 632.848 801.528C634.128 802.339 635.707 802.744 637.584 802.744C639.845 802.744 641.637 802.083 642.96 800.76C644.325 799.48 645.008 797.411 645.008 794.552V789.496C643.941 791.16 642.469 792.525 640.592 793.592C638.715 794.616 636.517 795.128 634 795.128C631.056 795.128 628.389 794.381 626 792.888C623.611 791.352 621.712 789.197 620.304 786.424C618.939 783.608 618.256 780.365 618.256 776.696C618.256 773.027 618.939 769.805 620.304 767.032C621.712 764.259 623.611 762.125 626 760.632C628.389 759.139 631.056 758.392 634 758.392ZM645.008 776.76C645.008 774.029 644.24 771.875 642.704 770.296C641.211 768.717 639.376 767.928 637.2 767.928C635.024 767.928 633.168 768.717 631.632 770.296C630.139 771.832 629.392 773.965 629.392 776.696C629.392 779.427 630.139 781.603 631.632 783.224C633.168 784.803 635.024 785.592 637.2 785.592C639.376 785.592 641.211 784.803 642.704 783.224C644.24 781.645 645.008 779.491 645.008 776.76ZM711.096 776.184C711.096 777.208 711.032 778.275 710.904 779.384H686.136C686.307 781.603 687.011 783.309 688.248 784.504C689.528 785.656 691.085 786.232 692.92 786.232C695.651 786.232 697.549 785.08 698.616 782.776H710.264C709.667 785.123 708.579 787.235 707 789.112C705.464 790.989 703.523 792.461 701.176 793.528C698.829 794.595 696.205 795.128 693.304 795.128C689.805 795.128 686.691 794.381 683.96 792.888C681.229 791.395 679.096 789.261 677.56 786.488C676.024 783.715 675.256 780.472 675.256 776.76C675.256 773.048 676.003 769.805 677.496 767.032C679.032 764.259 681.165 762.125 683.896 760.632C686.627 759.139 689.763 758.392 693.304 758.392C696.76 758.392 699.832 759.117 702.52 760.568C705.208 762.019 707.299 764.088 708.792 766.776C710.328 769.464 711.096 772.6 711.096 776.184ZM699.896 773.304C699.896 771.427 699.256 769.933 697.976 768.824C696.696 767.715 695.096 767.16 693.176 767.16C691.341 767.16 689.784 767.693 688.504 768.76C687.267 769.827 686.499 771.341 686.2 773.304H699.896ZM714.693 776.696C714.693 773.027 715.376 769.805 716.741 767.032C718.149 764.259 720.048 762.125 722.437 760.632C724.827 759.139 727.493 758.392 730.437 758.392C732.955 758.392 735.152 758.904 737.029 759.928C738.949 760.952 740.421 762.296 741.445 763.96V758.904H752.389V794.616H741.445V789.56C740.379 791.224 738.885 792.568 736.965 793.592C735.088 794.616 732.891 795.128 730.373 795.128C727.472 795.128 724.827 794.381 722.437 792.888C720.048 791.352 718.149 789.197 716.741 786.424C715.376 783.608 714.693 780.365 714.693 776.696ZM741.445 776.76C741.445 774.029 740.677 771.875 739.141 770.296C737.648 768.717 735.813 767.928 733.637 767.928C731.461 767.928 729.605 768.717 728.069 770.296C726.576 771.832 725.829 773.965 725.829 776.696C725.829 779.427 726.576 781.603 728.069 783.224C729.605 784.803 731.461 785.592 733.637 785.592C735.813 785.592 737.648 784.803 739.141 783.224C740.677 781.645 741.445 779.491 741.445 776.76ZM758.131 776.76C758.131 773.048 758.878 769.805 760.371 767.032C761.907 764.259 764.019 762.125 766.707 760.632C769.438 759.139 772.552 758.392 776.051 758.392C780.531 758.392 784.264 759.565 787.251 761.912C790.28 764.259 792.264 767.565 793.203 771.832H781.555C780.574 769.101 778.675 767.736 775.859 767.736C773.854 767.736 772.254 768.525 771.059 770.104C769.864 771.64 769.267 773.859 769.267 776.76C769.267 779.661 769.864 781.901 771.059 783.48C772.254 785.016 773.854 785.784 775.859 785.784C778.675 785.784 780.574 784.419 781.555 781.688H793.203C792.264 785.869 790.28 789.155 787.251 791.544C784.222 793.933 780.488 795.128 776.051 795.128C772.552 795.128 769.438 794.381 766.707 792.888C764.019 791.395 761.907 789.261 760.371 786.488C758.878 783.715 758.131 780.472 758.131 776.76ZM821.009 758.52C825.105 758.52 828.39 759.885 830.865 762.616C833.34 765.304 834.577 769.016 834.577 773.752V794.616H823.697V775.224C823.697 772.835 823.078 770.979 821.841 769.656C820.604 768.333 818.94 767.672 816.849 767.672C814.758 767.672 813.094 768.333 811.857 769.656C810.62 770.979 810.001 772.835 810.001 775.224V794.616H799.057V747.256H810.001V763.704C811.11 762.125 812.625 760.867 814.545 759.928C816.465 758.989 818.62 758.52 821.009 758.52ZM872 795.128C868.502 795.128 865.344 794.381 862.528 792.888C859.755 791.395 857.558 789.261 855.936 786.488C854.358 783.715 853.568 780.472 853.568 776.76C853.568 773.091 854.379 769.869 856 767.096C857.622 764.28 859.84 762.125 862.656 760.632C865.472 759.139 868.63 758.392 872.128 758.392C875.627 758.392 878.784 759.139 881.6 760.632C884.416 762.125 886.635 764.28 888.256 767.096C889.878 769.869 890.688 773.091 890.688 776.76C890.688 780.429 889.856 783.672 888.192 786.488C886.571 789.261 884.331 791.395 881.472 792.888C878.656 794.381 875.499 795.128 872 795.128ZM872 785.656C874.091 785.656 875.862 784.888 877.312 783.352C878.806 781.816 879.552 779.619 879.552 776.76C879.552 773.901 878.827 771.704 877.376 770.168C875.968 768.632 874.219 767.864 872.128 767.864C869.995 767.864 868.224 768.632 866.816 770.168C865.408 771.661 864.704 773.859 864.704 776.76C864.704 779.619 865.387 781.816 866.752 783.352C868.16 784.888 869.91 785.656 872 785.656ZM916.398 785.336V794.616H910.83C906.862 794.616 903.769 793.656 901.55 791.736C899.332 789.773 898.222 786.595 898.222 782.2V767.992H893.87V758.904H898.222V750.2H909.166V758.904H916.334V767.992H909.166V782.328C909.166 783.395 909.422 784.163 909.934 784.632C910.446 785.101 911.3 785.336 912.494 785.336H916.398ZM944.446 758.52C948.542 758.52 951.828 759.885 954.302 762.616C956.777 765.304 958.014 769.016 958.014 773.752V794.616H947.134V775.224C947.134 772.835 946.516 770.979 945.278 769.656C944.041 768.333 942.377 767.672 940.286 767.672C938.196 767.672 936.532 768.333 935.294 769.656C934.057 770.979 933.438 772.835 933.438 775.224V794.616H922.494V747.256H933.438V763.704C934.548 762.125 936.062 760.867 937.982 759.928C939.902 758.989 942.057 758.52 944.446 758.52ZM999.283 776.184C999.283 777.208 999.219 778.275 999.091 779.384H974.323C974.494 781.603 975.198 783.309 976.435 784.504C977.715 785.656 979.273 786.232 981.107 786.232C983.838 786.232 985.737 785.08 986.803 782.776H998.451C997.854 785.123 996.766 787.235 995.187 789.112C993.651 790.989 991.71 792.461 989.363 793.528C987.017 794.595 984.393 795.128 981.491 795.128C977.993 795.128 974.878 794.381 972.147 792.888C969.417 791.395 967.283 789.261 965.747 786.488C964.211 783.715 963.443 780.472 963.443 776.76C963.443 773.048 964.19 769.805 965.683 767.032C967.219 764.259 969.353 762.125 972.083 760.632C974.814 759.139 977.95 758.392 981.491 758.392C984.947 758.392 988.019 759.117 990.707 760.568C993.395 762.019 995.486 764.088 996.979 766.776C998.515 769.464 999.283 772.6 999.283 776.184ZM988.083 773.304C988.083 771.427 987.443 769.933 986.163 768.824C984.883 767.715 983.283 767.16 981.363 767.16C979.529 767.16 977.971 767.693 976.691 768.76C975.454 769.827 974.686 771.341 974.387 773.304H988.083ZM1016 764.856C1017.28 762.893 1018.88 761.357 1020.8 760.248C1022.72 759.096 1024.85 758.52 1027.2 758.52V770.104H1024.19C1021.46 770.104 1019.41 770.701 1018.05 771.896C1016.68 773.048 1016 775.096 1016 778.04V794.616H1005.06V758.904H1016V764.856ZM1043.82 776.696C1043.82 773.027 1044.5 769.805 1045.87 767.032C1047.27 764.259 1049.17 762.125 1051.56 760.632C1053.95 759.139 1056.62 758.392 1059.56 758.392C1062.08 758.392 1064.28 758.904 1066.15 759.928C1068.07 760.952 1069.55 762.296 1070.57 763.96V758.904H1081.51V794.616H1070.57V789.56C1069.5 791.224 1068.01 792.568 1066.09 793.592C1064.21 794.616 1062.02 795.128 1059.5 795.128C1056.6 795.128 1053.95 794.381 1051.56 792.888C1049.17 791.352 1047.27 789.197 1045.87 786.424C1044.5 783.608 1043.82 780.365 1043.82 776.696ZM1070.57 776.76C1070.57 774.029 1069.8 771.875 1068.27 770.296C1066.77 768.717 1064.94 767.928 1062.76 767.928C1060.59 767.928 1058.73 768.717 1057.19 770.296C1055.7 771.832 1054.95 773.965 1054.95 776.696C1054.95 779.427 1055.7 781.603 1057.19 783.224C1058.73 784.803 1060.59 785.592 1062.76 785.592C1064.94 785.592 1066.77 784.803 1068.27 783.224C1069.8 781.645 1070.57 779.491 1070.57 776.76ZM1111.19 758.52C1115.37 758.52 1118.7 759.885 1121.18 762.616C1123.69 765.304 1124.95 769.016 1124.95 773.752V794.616H1114.07V775.224C1114.07 772.835 1113.45 770.979 1112.22 769.656C1110.98 768.333 1109.31 767.672 1107.22 767.672C1105.13 767.672 1103.47 768.333 1102.23 769.656C1100.99 770.979 1100.38 772.835 1100.38 775.224V794.616H1089.43V758.904H1100.38V763.64C1101.49 762.061 1102.98 760.824 1104.86 759.928C1106.73 758.989 1108.85 758.52 1111.19 758.52ZM1130.38 776.696C1130.38 773.027 1131.06 769.805 1132.43 767.032C1133.84 764.259 1135.74 762.125 1138.12 760.632C1140.51 759.139 1143.18 758.392 1146.12 758.392C1148.47 758.392 1150.6 758.883 1152.52 759.864C1154.49 760.845 1156.02 762.168 1157.13 763.832V747.256H1168.08V794.616H1157.13V789.496C1156.11 791.203 1154.64 792.568 1152.72 793.592C1150.84 794.616 1148.64 795.128 1146.12 795.128C1143.18 795.128 1140.51 794.381 1138.12 792.888C1135.74 791.352 1133.84 789.197 1132.43 786.424C1131.06 783.608 1130.38 780.365 1130.38 776.696ZM1157.13 776.76C1157.13 774.029 1156.36 771.875 1154.83 770.296C1153.34 768.717 1151.5 767.928 1149.32 767.928C1147.15 767.928 1145.29 768.717 1143.76 770.296C1142.26 771.832 1141.52 773.965 1141.52 776.696C1141.52 779.427 1142.26 781.603 1143.76 783.224C1145.29 784.803 1147.15 785.592 1149.32 785.592C1151.5 785.592 1153.34 784.803 1154.83 783.224C1156.36 781.645 1157.13 779.491 1157.13 776.76ZM24.3839 835.52C28.4799 835.52 31.7652 836.885 34.2399 839.616C36.7145 842.304 37.9519 846.016 37.9519 850.752V871.616H27.0719V852.224C27.0719 849.835 26.4532 847.979 25.2159 846.656C23.9785 845.333 22.3145 844.672 20.2239 844.672C18.1332 844.672 16.4692 845.333 15.2319 846.656C13.9945 847.979 13.3759 849.835 13.3759 852.224V871.616H2.43187V824.256H13.3759V840.704C14.4852 839.125 15.9999 837.867 17.9199 836.928C19.8399 835.989 21.9945 835.52 24.3839 835.52ZM80.8209 835.904V871.616H69.8769V866.752C68.7675 868.331 67.2529 869.611 65.3329 870.592C63.4555 871.531 61.3649 872 59.0609 872C56.3302 872 53.9195 871.403 51.8289 870.208C49.7382 868.971 48.1169 867.2 46.9649 864.896C45.8129 862.592 45.2369 859.883 45.2369 856.768V835.904H56.1169V855.296C56.1169 857.685 56.7355 859.541 57.9729 860.864C59.2102 862.187 60.8742 862.848 62.9649 862.848C65.0982 862.848 66.7835 862.187 68.0209 860.864C69.2582 859.541 69.8769 857.685 69.8769 855.296V835.904H80.8209ZM99.6259 841.856C100.906 839.893 102.506 838.357 104.426 837.248C106.346 836.096 108.479 835.52 110.826 835.52V847.104H107.818C105.087 847.104 103.039 847.701 101.674 848.896C100.309 850.048 99.6259 852.096 99.6259 855.04V871.616H88.6819V835.904H99.6259V841.856ZM135.961 862.336V871.616H130.393C126.425 871.616 123.332 870.656 121.113 868.736C118.894 866.773 117.785 863.595 117.785 859.2V844.992H113.433V835.904H117.785V827.2H128.729V835.904H135.897V844.992H128.729V859.328C128.729 860.395 128.985 861.163 129.497 861.632C130.009 862.101 130.862 862.336 132.057 862.336H135.961ZM147.561 832.192C145.641 832.192 144.062 831.637 142.825 830.528C141.63 829.376 141.033 827.968 141.033 826.304C141.033 824.597 141.63 823.189 142.825 822.08C144.062 820.928 145.641 820.352 147.561 820.352C149.438 820.352 150.974 820.928 152.169 822.08C153.406 823.189 154.025 824.597 154.025 826.304C154.025 827.968 153.406 829.376 152.169 830.528C150.974 831.637 149.438 832.192 147.561 832.192ZM153.001 835.904V871.616H142.057V835.904H153.001ZM182.692 835.52C186.873 835.52 190.201 836.885 192.676 839.616C195.193 842.304 196.452 846.016 196.452 850.752V871.616H185.572V852.224C185.572 849.835 184.953 847.979 183.716 846.656C182.479 845.333 180.815 844.672 178.724 844.672C176.633 844.672 174.969 845.333 173.732 846.656C172.495 847.979 171.876 849.835 171.876 852.224V871.616H160.932V835.904H171.876V840.64C172.985 839.061 174.479 837.824 176.356 836.928C178.233 835.989 180.345 835.52 182.692 835.52ZM217.625 835.392C220.142 835.392 222.34 835.904 224.217 836.928C226.137 837.952 227.609 839.296 228.633 840.96V835.904H239.577V871.552C239.577 874.837 238.916 877.803 237.593 880.448C236.313 883.136 234.329 885.269 231.641 886.848C228.996 888.427 225.689 889.216 221.721 889.216C216.43 889.216 212.142 887.957 208.857 885.44C205.572 882.965 203.694 879.595 203.225 875.328H214.041C214.382 876.693 215.193 877.76 216.473 878.528C217.753 879.339 219.332 879.744 221.209 879.744C223.47 879.744 225.262 879.083 226.585 877.76C227.95 876.48 228.633 874.411 228.633 871.552V866.496C227.566 868.16 226.094 869.525 224.217 870.592C222.34 871.616 220.142 872.128 217.625 872.128C214.681 872.128 212.014 871.381 209.625 869.888C207.236 868.352 205.337 866.197 203.929 863.424C202.564 860.608 201.881 857.365 201.881 853.696C201.881 850.027 202.564 846.805 203.929 844.032C205.337 841.259 207.236 839.125 209.625 837.632C212.014 836.139 214.681 835.392 217.625 835.392ZM228.633 853.76C228.633 851.029 227.865 848.875 226.329 847.296C224.836 845.717 223.001 844.928 220.825 844.928C218.649 844.928 216.793 845.717 215.257 847.296C213.764 848.832 213.017 850.965 213.017 853.696C213.017 856.427 213.764 858.603 215.257 860.224C216.793 861.803 218.649 862.592 220.825 862.592C223.001 862.592 224.836 861.803 226.329 860.224C227.865 858.645 228.633 856.491 228.633 853.76ZM283.009 835.52C287.105 835.52 290.39 836.885 292.865 839.616C295.34 842.304 296.577 846.016 296.577 850.752V871.616H285.697V852.224C285.697 849.835 285.078 847.979 283.841 846.656C282.604 845.333 280.94 844.672 278.849 844.672C276.758 844.672 275.094 845.333 273.857 846.656C272.62 847.979 272.001 849.835 272.001 852.224V871.616H261.057V824.256H272.001V840.704C273.11 839.125 274.625 837.867 276.545 836.928C278.465 835.989 280.62 835.52 283.009 835.52ZM339.446 835.904V871.616H328.502V866.752C327.393 868.331 325.878 869.611 323.958 870.592C322.081 871.531 319.99 872 317.686 872C314.955 872 312.545 871.403 310.454 870.208C308.363 868.971 306.742 867.2 305.59 864.896C304.438 862.592 303.862 859.883 303.862 856.768V835.904H314.742V855.296C314.742 857.685 315.361 859.541 316.598 860.864C317.835 862.187 319.499 862.848 321.59 862.848C323.723 862.848 325.409 862.187 326.646 860.864C327.883 859.541 328.502 857.685 328.502 855.296V835.904H339.446ZM392.875 835.52C397.312 835.52 400.832 836.864 403.435 839.552C406.08 842.24 407.403 845.973 407.403 850.752V871.616H396.523V852.224C396.523 849.92 395.904 848.149 394.667 846.912C393.472 845.632 391.808 844.992 389.675 844.992C387.542 844.992 385.856 845.632 384.619 846.912C383.424 848.149 382.827 849.92 382.827 852.224V871.616H371.947V852.224C371.947 849.92 371.328 848.149 370.091 846.912C368.896 845.632 367.232 844.992 365.099 844.992C362.966 844.992 361.28 845.632 360.043 846.912C358.848 848.149 358.251 849.92 358.251 852.224V871.616H347.307V835.904H358.251V840.384C359.36 838.891 360.811 837.717 362.603 836.864C364.395 835.968 366.422 835.52 368.683 835.52C371.371 835.52 373.76 836.096 375.851 837.248C377.984 838.4 379.648 840.043 380.843 842.176C382.08 840.213 383.766 838.613 385.899 837.376C388.032 836.139 390.358 835.52 392.875 835.52ZM412.881 853.696C412.881 850.027 413.564 846.805 414.929 844.032C416.337 841.259 418.236 839.125 420.625 837.632C423.014 836.139 425.681 835.392 428.625 835.392C431.142 835.392 433.34 835.904 435.217 836.928C437.137 837.952 438.609 839.296 439.633 840.96V835.904H450.577V871.616H439.633V866.56C438.566 868.224 437.073 869.568 435.153 870.592C433.276 871.616 431.078 872.128 428.561 872.128C425.66 872.128 423.014 871.381 420.625 869.888C418.236 868.352 416.337 866.197 414.929 863.424C413.564 860.608 412.881 857.365 412.881 853.696ZM439.633 853.76C439.633 851.029 438.865 848.875 437.329 847.296C435.836 845.717 434.001 844.928 431.825 844.928C429.649 844.928 427.793 845.717 426.257 847.296C424.764 848.832 424.017 850.965 424.017 853.696C424.017 856.427 424.764 858.603 426.257 860.224C427.793 861.803 429.649 862.592 431.825 862.592C434.001 862.592 435.836 861.803 437.329 860.224C438.865 858.645 439.633 856.491 439.633 853.76ZM480.254 835.52C484.436 835.52 487.764 836.885 490.238 839.616C492.756 842.304 494.014 846.016 494.014 850.752V871.616H483.134V852.224C483.134 849.835 482.516 847.979 481.278 846.656C480.041 845.333 478.377 844.672 476.286 844.672C474.196 844.672 472.532 845.333 471.294 846.656C470.057 847.979 469.438 849.835 469.438 852.224V871.616H458.494V835.904H469.438V840.64C470.548 839.061 472.041 837.824 473.918 836.928C475.796 835.989 477.908 835.52 480.254 835.52ZM516.147 872.128C513.033 872.128 510.259 871.595 507.827 870.528C505.395 869.461 503.475 868.011 502.067 866.176C500.659 864.299 499.87 862.208 499.699 859.904H510.515C510.643 861.141 511.219 862.144 512.243 862.912C513.267 863.68 514.526 864.064 516.019 864.064C517.385 864.064 518.43 863.808 519.155 863.296C519.923 862.741 520.307 862.037 520.307 861.184C520.307 860.16 519.774 859.413 518.707 858.944C517.641 858.432 515.913 857.877 513.523 857.28C510.963 856.683 508.83 856.064 507.123 855.424C505.417 854.741 503.945 853.696 502.707 852.288C501.47 850.837 500.851 848.896 500.851 846.464C500.851 844.416 501.406 842.56 502.515 840.896C503.667 839.189 505.331 837.845 507.507 836.864C509.726 835.883 512.35 835.392 515.379 835.392C519.859 835.392 523.379 836.501 525.939 838.72C528.542 840.939 530.035 843.883 530.419 847.552H520.307C520.137 846.315 519.582 845.333 518.643 844.608C517.747 843.883 516.553 843.52 515.059 843.52C513.779 843.52 512.798 843.776 512.115 844.288C511.433 844.757 511.091 845.419 511.091 846.272C511.091 847.296 511.625 848.064 512.691 848.576C513.801 849.088 515.507 849.6 517.811 850.112C520.457 850.795 522.611 851.477 524.275 852.16C525.939 852.8 527.39 853.867 528.627 855.36C529.907 856.811 530.569 858.773 530.611 861.248C530.611 863.339 530.014 865.216 528.819 866.88C527.667 868.501 525.982 869.781 523.763 870.72C521.587 871.659 519.049 872.128 516.147 872.128ZM542.427 872.128C540.507 872.128 538.928 871.573 537.691 870.464C536.496 869.312 535.899 867.904 535.899 866.24C535.899 864.533 536.496 863.104 537.691 861.952C538.928 860.8 540.507 860.224 542.427 860.224C544.304 860.224 545.84 860.8 547.035 861.952C548.272 863.104 548.891 864.533 548.891 866.24C548.891 867.904 548.272 869.312 547.035 870.464C545.84 871.573 544.304 872.128 542.427 872.128Z" fill="white" fill-opacity="0.8"/>
</svg>
