<svg width="1274" height="763" viewBox="0 0 1274 763" fill="none" xmlns="http://www.w3.org/2000/svg">
<path d="M538.5 53.6C537.5 59.7 535.15 65.3 531.45 70.4C527.75 75.4 522.7 79.45 516.3 82.55C510 85.65 502.55 87.2 493.95 87.2H478.05L471.3 125H445.65L464.25 19.7H505.8C516.8 19.7 525.1 22.15 530.7 27.05C536.3 31.85 539.1 38.4 539.1 46.7C539.1 49.2 538.9 51.5 538.5 53.6ZM495.45 67.1C505.05 67.1 510.7 62.6 512.4 53.6C512.6 52 512.7 50.85 512.7 50.15C512.7 46.95 511.65 44.5 509.55 42.8C507.55 41 504.45 40.1 500.25 40.1H486.3L481.65 67.1H495.45ZM591.454 40.1C602.254 40.1 610.804 43.05 617.104 48.95C623.504 54.75 626.704 62.7 626.704 72.8C626.704 76.1 626.454 79.05 625.954 81.65C625.554 83.95 624.954 86.4 624.154 89H566.104C566.004 89.6 565.954 90.55 565.954 91.85C565.954 96.25 567.154 99.6 569.554 101.9C571.954 104.2 575.154 105.35 579.154 105.35C585.554 105.35 590.454 102.65 593.854 97.25H621.154C617.554 105.75 611.704 112.7 603.604 118.1C595.504 123.5 586.404 126.2 576.304 126.2C565.504 126.2 556.854 123.2 550.354 117.2C543.954 111.2 540.754 103.05 540.754 92.75C540.754 89.65 541.054 86.45 541.654 83.15C543.154 74.45 546.254 66.85 550.954 60.35C555.654 53.85 561.504 48.85 568.504 45.35C575.504 41.85 583.154 40.1 591.454 40.1ZM600.754 75.95C600.954 74.55 601.054 73.6 601.054 73.1C601.054 69.1 599.804 66.05 597.304 63.95C594.804 61.75 591.504 60.65 587.404 60.65C583.004 60.65 579.104 62 575.704 64.7C572.404 67.3 570.004 71.05 568.504 75.95H600.754ZM634.085 83C635.585 74.4 638.535 66.85 642.935 60.35C647.335 53.85 652.635 48.85 658.835 45.35C665.035 41.85 671.585 40.1 678.485 40.1C683.985 40.1 688.785 41.25 692.885 43.55C697.085 45.85 700.135 48.95 702.035 52.85L708.935 14H734.585L714.935 125H689.285L691.385 113C688.185 117 684.185 120.2 679.385 122.6C674.585 125 669.235 126.2 663.335 126.2C657.435 126.2 652.185 124.85 647.585 122.15C643.085 119.45 639.535 115.6 636.935 110.6C634.435 105.6 633.185 99.75 633.185 93.05C633.185 89.95 633.485 86.6 634.085 83ZM696.785 83.15C697.085 81.35 697.235 79.7 697.235 78.2C697.235 73.3 695.785 69.45 692.885 66.65C690.085 63.85 686.485 62.45 682.085 62.45C676.985 62.45 672.335 64.3 668.135 68C663.935 71.6 661.285 76.6 660.185 83C659.885 84.8 659.735 86.45 659.735 87.95C659.735 92.85 661.135 96.75 663.935 99.65C666.835 102.45 670.435 103.85 674.735 103.85C679.835 103.85 684.485 102 688.685 98.3C692.885 94.6 695.585 89.55 696.785 83.15ZM785.692 40.1C796.492 40.1 805.042 43.05 811.342 48.95C817.742 54.75 820.942 62.7 820.942 72.8C820.942 76.1 820.692 79.05 820.192 81.65C819.792 83.95 819.192 86.4 818.392 89H760.342C760.242 89.6 760.192 90.55 760.192 91.85C760.192 96.25 761.392 99.6 763.792 101.9C766.192 104.2 769.392 105.35 773.392 105.35C779.792 105.35 784.692 102.65 788.092 97.25H815.392C811.792 105.75 805.942 112.7 797.842 118.1C789.742 123.5 780.642 126.2 770.542 126.2C759.742 126.2 751.092 123.2 744.592 117.2C738.192 111.2 734.992 103.05 734.992 92.75C734.992 89.65 735.292 86.45 735.892 83.15C737.392 74.45 740.492 66.85 745.192 60.35C749.892 53.85 755.742 48.85 762.742 45.35C769.742 41.85 777.392 40.1 785.692 40.1ZM794.992 75.95C795.192 74.55 795.292 73.6 795.292 73.1C795.292 69.1 794.042 66.05 791.542 63.95C789.042 61.75 785.742 60.65 781.642 60.65C777.242 60.65 773.342 62 769.942 64.7C766.642 67.3 764.242 71.05 762.742 75.95H794.992ZM860.723 126.2C854.123 126.2 848.173 125.15 842.873 123.05C837.673 120.95 833.573 118.05 830.573 114.35C827.573 110.55 826.073 106.2 826.073 101.3C826.073 100.6 826.173 99.35 826.373 97.55H851.123C850.923 100.65 851.823 103.15 853.823 105.05C855.923 106.85 858.873 107.75 862.673 107.75C865.873 107.75 868.523 107.15 870.623 105.95C872.723 104.75 873.773 103.05 873.773 100.85C873.773 98.75 872.623 97.1 870.323 95.9C868.123 94.6 864.423 93.05 859.223 91.25C853.823 89.45 849.273 87.7 845.573 86C841.973 84.2 838.873 81.65 836.273 78.35C833.673 75.05 832.373 70.9 832.373 65.9C832.373 61 833.823 56.6 836.723 52.7C839.623 48.7 843.673 45.6 848.873 43.4C854.173 41.2 860.273 40.1 867.173 40.1C874.073 40.1 880.073 41.25 885.173 43.55C890.273 45.75 894.223 48.85 897.023 52.85C899.823 56.85 901.223 61.35 901.223 66.35L901.073 68.6H877.823C878.023 65.6 877.123 63.2 875.123 61.4C873.123 59.6 870.273 58.7 866.573 58.7C863.673 58.7 861.273 59.3 859.373 60.5C857.573 61.7 856.673 63.35 856.673 65.45C856.673 67.65 857.873 69.5 860.273 71C862.773 72.4 866.623 74 871.823 75.8C877.223 77.6 881.673 79.4 885.173 81.2C888.773 82.9 891.823 85.35 894.323 88.55C896.923 91.65 898.223 95.55 898.223 100.25C898.223 105.65 896.573 110.3 893.273 114.2C890.073 118.1 885.623 121.1 879.923 123.2C874.323 125.2 867.923 126.2 860.723 126.2ZM944.366 96.2C944.266 96.7 944.216 97.35 944.216 98.15C944.216 99.95 944.716 101.25 945.716 102.05C946.816 102.85 948.566 103.25 950.966 103.25H960.116L956.216 125H943.166C926.366 125 917.966 117.95 917.966 103.85C917.966 101.75 918.216 99.1 918.716 95.9L924.716 62.6H914.516L918.266 41.3H928.466L932.066 20.9H957.716L954.116 41.3H970.916L967.166 62.6H950.366L944.366 96.2ZM1008.15 56.45C1012.05 51.45 1016.5 47.55 1021.5 44.75C1026.6 41.85 1031.9 40.4 1037.4 40.4L1032.6 67.55H1025.55C1019.15 67.55 1014.1 68.95 1010.4 71.75C1006.7 74.45 1004.25 79.25 1003.05 86.15L996.154 125H970.504L985.204 41.3H1010.85L1008.15 56.45ZM1063.91 32.6C1059.91 32.6 1056.71 31.55 1054.31 29.45C1052.01 27.25 1050.86 24.5 1050.86 21.2C1050.86 16.7 1052.61 12.85 1056.11 9.64999C1059.61 6.44999 1063.86 4.84999 1068.86 4.84999C1072.86 4.84999 1076.01 5.94999 1078.31 8.14999C1080.61 10.25 1081.76 13 1081.76 16.4C1081.76 20.8 1080.01 24.6 1076.51 27.8C1073.01 31 1068.81 32.6 1063.91 32.6ZM1075.01 41.3L1060.31 125H1034.66L1049.36 41.3H1075.01ZM1081.3 83C1082.8 74.4 1085.75 66.85 1090.15 60.35C1094.55 53.85 1099.85 48.85 1106.05 45.35C1112.25 41.85 1118.8 40.1 1125.7 40.1C1131.6 40.1 1136.55 41.3 1140.55 43.7C1144.55 46.1 1147.45 49.25 1149.25 53.15L1151.35 41.3H1177L1162.15 125H1136.5L1138.75 113.15C1135.55 117.05 1131.5 120.2 1126.6 122.6C1121.7 125 1116.3 126.2 1110.4 126.2C1104.5 126.2 1099.25 124.85 1094.65 122.15C1090.15 119.45 1086.65 115.65 1084.15 110.75C1081.65 105.75 1080.4 99.9 1080.4 93.2C1080.4 90 1080.7 86.6 1081.3 83ZM1144 83.15C1144.3 81.35 1144.45 79.7 1144.45 78.2C1144.45 73.3 1143 69.45 1140.1 66.65C1137.3 63.85 1133.7 62.45 1129.3 62.45C1124.2 62.45 1119.55 64.3 1115.35 68C1111.15 71.6 1108.5 76.6 1107.4 83C1107.1 84.8 1106.95 86.45 1106.95 87.95C1106.95 92.85 1108.35 96.75 1111.15 99.65C1114.05 102.45 1117.65 103.85 1121.95 103.85C1127.05 103.85 1131.7 102 1135.9 98.3C1140.1 94.6 1142.8 89.55 1144 83.15ZM1246.56 40.4C1254.96 40.4 1261.56 42.75 1266.36 47.45C1271.16 52.15 1273.56 58.7 1273.56 67.1C1273.56 69.9 1273.26 72.9 1272.66 76.1L1263.96 125H1238.46L1246.56 79.55C1246.86 77.85 1247.01 76.35 1247.01 75.05C1247.01 70.85 1245.81 67.6 1243.41 65.3C1241.11 63 1237.86 61.85 1233.66 61.85C1228.66 61.85 1224.46 63.4 1221.06 66.5C1217.66 69.6 1215.46 73.95 1214.46 79.55V78.8L1206.36 125H1180.71L1195.41 41.3H1221.06L1219.11 52.55C1222.41 48.85 1226.41 45.9 1231.11 43.7C1235.91 41.5 1241.06 40.4 1246.56 40.4ZM450.75 390.2C452.55 379.8 456.4 370.55 462.3 362.45C468.3 354.25 475.7 347.9 484.5 343.4C493.3 338.8 502.8 336.5 513 336.5C525.5 336.5 535.6 339.8 543.3 346.4C551.1 353 555.5 362 556.5 373.4H528.3C527 369.1 524.6 365.85 521.1 363.65C517.7 361.35 513.5 360.2 508.5 360.2C500.6 360.2 493.75 362.95 487.95 368.45C482.15 373.85 478.45 381.1 476.85 390.2C476.35 393 476.1 395.45 476.1 397.55C476.1 404.55 478.05 410.1 481.95 414.2C485.85 418.3 491.2 420.35 498 420.35C502.9 420.35 507.45 419.2 511.65 416.9C515.95 414.6 519.55 411.3 522.45 407H550.65C545.65 418.4 538.1 427.4 528 434C517.9 440.5 506.6 443.75 494.1 443.75C485.1 443.75 477.25 442 470.55 438.5C463.85 435 458.7 430.05 455.1 423.65C451.5 417.25 449.7 409.8 449.7 401.3C449.7 397.5 450.05 393.8 450.75 390.2ZM593.808 359.3L604.008 411.65L632.508 359.3H660.258L586.008 482.75H558.408L585.108 440.15L565.308 359.3H593.808ZM657.083 401.15C658.583 392.45 661.683 384.85 666.383 378.35C671.083 371.85 676.883 366.85 683.783 363.35C690.783 359.85 698.383 358.1 706.583 358.1C717.083 358.1 725.383 360.85 731.483 366.35C737.583 371.85 740.833 379.6 741.233 389.6H713.933C712.833 383.2 708.933 380 702.233 380C697.533 380 693.483 381.85 690.083 385.55C686.683 389.15 684.383 394.35 683.183 401.15C682.783 403.25 682.583 405.45 682.583 407.75C682.583 412.45 683.683 416.05 685.883 418.55C688.083 421.05 691.083 422.3 694.883 422.3C701.483 422.3 706.433 419.1 709.733 412.7H737.183C733.283 422.5 727.283 430.2 719.183 435.8C711.083 441.4 701.833 444.2 691.433 444.2C680.633 444.2 672.033 441.25 665.633 435.35C659.333 429.35 656.183 421.2 656.183 410.9C656.183 407.8 656.483 404.55 657.083 401.15ZM790.804 332L771.154 443H745.504L765.154 332H790.804ZM818.992 350.6C814.992 350.6 811.792 349.55 809.392 347.45C807.092 345.25 805.942 342.5 805.942 339.2C805.942 334.7 807.692 330.85 811.192 327.65C814.692 324.45 818.942 322.85 823.942 322.85C827.942 322.85 831.092 323.95 833.392 326.15C835.692 328.25 836.842 331 836.842 334.4C836.842 338.8 835.092 342.6 831.592 345.8C828.092 349 823.892 350.6 818.992 350.6ZM830.092 359.3L815.392 443H789.742L804.442 359.3H830.092ZM868.78 444.2C862.18 444.2 856.23 443.15 850.93 441.05C845.73 438.95 841.63 436.05 838.63 432.35C835.63 428.55 834.13 424.2 834.13 419.3C834.13 418.6 834.23 417.35 834.43 415.55H859.18C858.98 418.65 859.88 421.15 861.88 423.05C863.98 424.85 866.93 425.75 870.73 425.75C873.93 425.75 876.58 425.15 878.68 423.95C880.78 422.75 881.83 421.05 881.83 418.85C881.83 416.75 880.68 415.1 878.38 413.9C876.18 412.6 872.48 411.05 867.28 409.25C861.88 407.45 857.33 405.7 853.63 404C850.03 402.2 846.93 399.65 844.33 396.35C841.73 393.05 840.43 388.9 840.43 383.9C840.43 379 841.88 374.6 844.78 370.7C847.68 366.7 851.73 363.6 856.93 361.4C862.23 359.2 868.33 358.1 875.23 358.1C882.13 358.1 888.13 359.25 893.23 361.55C898.33 363.75 902.28 366.85 905.08 370.85C907.88 374.85 909.28 379.35 909.28 384.35L909.13 386.6H885.88C886.08 383.6 885.18 381.2 883.18 379.4C881.18 377.6 878.33 376.7 874.63 376.7C871.73 376.7 869.33 377.3 867.43 378.5C865.63 379.7 864.73 381.35 864.73 383.45C864.73 385.65 865.93 387.5 868.33 389C870.83 390.4 874.68 392 879.88 393.8C885.28 395.6 889.73 397.4 893.23 399.2C896.83 400.9 899.88 403.35 902.38 406.55C904.98 409.65 906.28 413.55 906.28 418.25C906.28 423.65 904.63 428.3 901.33 432.2C898.13 436.1 893.68 439.1 887.98 441.2C882.38 443.2 875.98 444.2 868.78 444.2ZM952.423 414.2C952.323 414.7 952.273 415.35 952.273 416.15C952.273 417.95 952.773 419.25 953.773 420.05C954.873 420.85 956.623 421.25 959.023 421.25H968.173L964.273 443H951.223C934.423 443 926.023 435.95 926.023 421.85C926.023 419.75 926.273 417.1 926.773 413.9L932.773 380.6H922.573L926.323 359.3H936.523L940.123 338.9H965.773L962.173 359.3H978.973L975.223 380.6H958.423L952.423 414.2ZM503.7 655.7C513.4 655.7 521.75 657.45 528.75 660.95C535.85 664.35 541.25 669.2 544.95 675.5C548.75 681.7 550.65 689 550.65 697.4C550.65 700.3 550.3 703.95 549.6 708.35C547.8 718.65 543.9 727.8 537.9 735.8C532 743.8 524.45 750 515.25 754.4C506.15 758.8 496.1 761 485.1 761H445.65L464.25 655.7H503.7ZM487.35 739.1C497.05 739.1 505.1 736.4 511.5 731C517.9 725.6 521.9 718.05 523.5 708.35C524 705.35 524.25 702.85 524.25 700.85C524.25 693.45 522 687.75 517.5 683.75C513 679.65 506.6 677.6 498.3 677.6H486L475.2 739.1H487.35ZM592.284 692.45C596.184 687.45 600.634 683.55 605.634 680.75C610.734 677.85 616.034 676.4 621.534 676.4L616.734 703.55H609.684C603.284 703.55 598.234 704.95 594.534 707.75C590.834 710.45 588.384 715.25 587.184 722.15L580.284 761H554.634L569.334 677.3H594.984L592.284 692.45ZM648.045 668.6C644.045 668.6 640.845 667.55 638.445 665.45C636.145 663.25 634.995 660.5 634.995 657.2C634.995 652.7 636.745 648.85 640.245 645.65C643.745 642.45 647.995 640.85 652.995 640.85C656.995 640.85 660.145 641.95 662.445 644.15C664.745 646.25 665.895 649 665.895 652.4C665.895 656.8 664.145 660.6 660.645 663.8C657.145 667 652.945 668.6 648.045 668.6ZM659.145 677.3L644.445 761H618.795L633.495 677.3H659.145ZM704.883 737L733.683 677.3H761.133L716.583 761H684.783L669.933 677.3H697.233L704.883 737ZM809.129 676.1C819.929 676.1 828.479 679.05 834.779 684.95C841.179 690.75 844.379 698.7 844.379 708.8C844.379 712.1 844.129 715.05 843.629 717.65C843.229 719.95 842.629 722.4 841.829 725H783.779C783.679 725.6 783.629 726.55 783.629 727.85C783.629 732.25 784.829 735.6 787.229 737.9C789.629 740.2 792.829 741.35 796.829 741.35C803.229 741.35 808.129 738.65 811.529 733.25H838.829C835.229 741.75 829.379 748.7 821.279 754.1C813.179 759.5 804.079 762.2 793.979 762.2C783.179 762.2 774.529 759.2 768.029 753.2C761.629 747.2 758.429 739.05 758.429 728.75C758.429 725.65 758.729 722.45 759.329 719.15C760.829 710.45 763.929 702.85 768.629 696.35C773.329 689.85 779.179 684.85 786.179 681.35C793.179 677.85 800.829 676.1 809.129 676.1ZM818.429 711.95C818.629 710.55 818.729 709.6 818.729 709.1C818.729 705.1 817.479 702.05 814.979 699.95C812.479 697.75 809.179 696.65 805.079 696.65C800.679 696.65 796.779 698 793.379 700.7C790.079 703.3 787.679 707.05 786.179 711.95H818.429ZM887.011 692.45C890.911 687.45 895.361 683.55 900.361 680.75C905.461 677.85 910.761 676.4 916.261 676.4L911.461 703.55H904.411C898.011 703.55 892.961 704.95 889.261 707.75C885.561 710.45 883.111 715.25 881.911 722.15L875.011 761H849.361L864.061 677.3H889.711L887.011 692.45ZM948.321 762.2C941.721 762.2 935.771 761.15 930.471 759.05C925.271 756.95 921.171 754.05 918.171 750.35C915.171 746.55 913.671 742.2 913.671 737.3C913.671 736.6 913.771 735.35 913.971 733.55H938.721C938.521 736.65 939.421 739.15 941.421 741.05C943.521 742.85 946.471 743.75 950.271 743.75C953.471 743.75 956.121 743.15 958.221 741.95C960.321 740.75 961.371 739.05 961.371 736.85C961.371 734.75 960.221 733.1 957.921 731.9C955.721 730.6 952.021 729.05 946.821 727.25C941.421 725.45 936.871 723.7 933.171 722C929.571 720.2 926.471 717.65 923.871 714.35C921.271 711.05 919.971 706.9 919.971 701.9C919.971 697 921.421 692.6 924.321 688.7C927.221 684.7 931.271 681.6 936.471 679.4C941.771 677.2 947.871 676.1 954.771 676.1C961.671 676.1 967.671 677.25 972.771 679.55C977.871 681.75 981.821 684.85 984.621 688.85C987.421 692.85 988.821 697.35 988.821 702.35L988.671 704.6H965.421C965.621 701.6 964.721 699.2 962.721 697.4C960.721 695.6 957.871 694.7 954.171 694.7C951.271 694.7 948.871 695.3 946.971 696.5C945.171 697.7 944.271 699.35 944.271 701.45C944.271 703.65 945.471 705.5 947.871 707C950.371 708.4 954.221 710 959.421 711.8C964.821 713.6 969.271 715.4 972.771 717.2C976.371 718.9 979.421 721.35 981.921 724.55C984.521 727.65 985.821 731.55 985.821 736.25C985.821 741.65 984.171 746.3 980.871 750.2C977.671 754.1 973.221 757.1 967.521 759.2C961.921 761.2 955.521 762.2 948.321 762.2Z" fill="white"/>
<ellipse cx="106" cy="38" rx="37" ry="38" fill="white"/>
<path d="M43 114C43 79.2061 71.2061 51 106 51C140.794 51 169 79.2061 169 114V116.6C169 125.657 161.657 133 152.6 133H59.4C50.3425 133 43 125.657 43 116.6V114Z" fill="white"/>
<path d="M40 718.5C40 676.803 73.8025 643 115.5 643C157.197 643 191 676.803 191 718.5V720.6C191 731.314 182.314 740 171.6 740H59.4C48.6857 740 40 731.314 40 720.6V718.5Z" fill="white"/>
<path d="M20 727C20 700.49 41.4903 679 68 679C94.5097 679 116 700.49 116 727V727.8C116 734.538 110.538 740 103.8 740H32.2C25.4621 740 20 734.538 20 727.8V727Z" fill="white"/>
<path d="M83 740.8C83 749.195 76.1947 756 67.8 756L67.2 756C58.8053 756 52 749.195 52 740.8C52 738.701 53.7013 737 55.8 737L79.2 737C81.2987 737 83 738.701 83 740.8Z" fill="white"/>
<path d="M173 740.8C173 749.195 166.195 756 157.8 756L157.2 756C148.805 756 142 749.195 142 740.8C142 738.701 143.701 737 145.8 737L169.2 737C171.299 737 173 738.701 173 740.8Z" fill="white"/>
<circle cx="41" cy="411" r="33.5" stroke="white" stroke-width="15"/>
<circle cx="170" cy="411" r="33.5" stroke="white" stroke-width="15"/>
<line x1="38.2768" y1="410.676" x2="82.2768" y2="321.676" stroke="white" stroke-width="15"/>
<line x1="162.5" y1="419" x2="162.5" y2="345" stroke="white" stroke-width="15"/>
<line x1="119" y1="324" x2="45" y2="324" stroke="white" stroke-width="10"/>
<line x1="184" y1="346.5" x2="146" y2="346.5" stroke="white" stroke-width="15"/>
<line x1="56" y1="373.5" x2="161" y2="373.5" stroke="white" stroke-width="15"/>
</svg>
